<?xml version="1.0" encoding="UTF-8"?>
<svg id="Layer_1" data-name="Layer 1" xmlns="http://www.w3.org/2000/svg" viewBox="0 0 91.27 107.91">
  <defs>
    <style>
      .cls-1 {
        fill: #f9c611;
      }

      .cls-2 {
        fill: #fff;
      }

      .cls-3 {
        fill: #231815;
      }

      .cls-4 {
        fill: none;
        stroke: #231815;
        stroke-miterlimit: 10;
        stroke-width: 2.38px;
      }
    </style>
  </defs>
  <path class="cls-1" d="m80.91,91.45s-14.61,16.6-20.32,13.1c-1.79-1.09,17.43-16.42,17.43-16.42l3.62,3.3"/>
  <path class="cls-1" d="m80.9,91.43c-8.36-6.85-6.45-10.57-6.45-10.57,0,0,7.87-9.65,13.07-9.25,0,0,5.39.16.47,10.67,0,0-2.27,5.23-6.35,9.14,0,0-.34.28-.74.03h-.01Z"/>
  <path class="cls-4" d="m63.03,101.96s-5.07,2.42-7.97-1.91"/>
  <path class="cls-4" d="m80.91,91.45s-21.06,19.76-20.32,13.1c.09-.78,17.04-16.42,17.04-16.42l4.02,3.3"/>
  <path class="cls-3" d="m73.38,80.31c-.24.47-2.11,4.81,6.75,12.06l.06.05.07.05c.79.5,1.65.31,2.16-.11l.03-.03.03-.03c4.19-4.02,6.5-9.27,6.62-9.53,2.28-4.86,2.76-8.41,1.45-10.54-.41-.66-.92-1.08-1.4-1.35-.77-.43-1.48-.47-1.6-.48h.06c-5.66-.44-13.25,8.66-14.1,9.69l-.08.1-.06.11Zm2.14,1.16c2.93-3.54,8.63-8.9,11.91-8.65h.02s.01,0,.02,0c.04,0,.25.03.5.16.18.1.39.27.55.55.37.64.97,2.73-1.61,8.24l-.02.03s-2.07,4.69-5.66,8.33c-6.11-5.14-5.83-8.1-5.7-8.66"/>
  <path class="cls-1" d="m36.59,103.63s-15.5-5.43-19.41-6.97c0,0-8.18-3.21-3.87-5.49,1.53-.81,5.99-3.39,9.64-2.35,3.64,1.03,26.34,10.13,26.34,10.13,0,0,10.93,3.1,7.92,6.25-3.02,3.15-16.53.27-20.62-1.57"/>
  <path class="cls-2" d="m37.3,91.15s17.86,4.55,17.82,9.73c0,0-.69,2.37-11.04-.51-10.42-2.89-16.98-6.19-16.98-6.19l10.2-3.03Z"/>
  <path class="cls-3" d="m54.49,102.34c-1.07.34-2.79.46-5.78-.05-1.34-.23-2.95-.58-4.87-1.12-10.47-2.92-17.06-6.2-17.26-6.32-.28-.19-.43-.5-.38-.81.05-.31.28-.56.6-.66l10.19-3.03c.15-.04.31-.05.47-.02.03,0,8.12,2.72,11.49,4.02,1.68.65,3.39,1.47,4.74,2.52,1.33,1.04,2.37,2.4,2.35,4.04,0,.07-.01.14-.03.21-.04.22-.43.89-1.52,1.22m-.66-1.59c.18-.06.29-.11.36-.16-.09-.85-.66-1.67-1.67-2.47-1.65-1.3-4.33-2.36-6.57-3.04-1.12-.34-6.91-2.7-7.64-2.87-.37-.08-.66-.15-.86-.19-.02,0-.05-.01-.07-.01l-7.82,2.32c1.69.65,9.51,3.77,14.77,5.22,1.87.52,3.4.86,4.66,1.08,2.81.48,4.24.31,4.84.11m-9.7-5.78l.43.74-.43-.74Z"/>
  <path class="cls-3" d="m13.04,89.95l-.29.16c-1.29.68-1.75,1.5-1.87,2.18-.03.19-.04.37-.03.53.14,2.52,4.55,4.44,5.89,4.97,3.85,1.52,18.59,6.69,19.43,6.98,2.06.92,6.46,2.14,10.98,2.73,5.64.73,9.31.25,10.94-1.45.45-.47.73-1,.82-1.56.06-.36.04-.73-.05-1.1-.8-2.96-7.14-4.99-9.16-5.57-1.4-.56-22.79-9.12-26.41-10.15-3.9-1.11-8.35,1.27-10.24,2.29m24.06,12.58s-.25.55-.5,1.1c.2-.57.4-1.14.4-1.14-.16-.05-15.53-5.44-19.36-6.95-2.31-.91-4.26-2.29-4.36-2.84.02-.04.14-.21.6-.45l.3-.16c1.64-.88,5.48-2.93,8.44-2.09,3.54,1.01,26,10,26.22,10.09l.06.02.06.02c3.33.95,7.25,2.78,7.55,3.9,0,.04.04.12-.18.35-.78.81-3.51,1.43-8.88.72-4.29-.56-8.54-1.73-10.37-2.56"/>
  <path class="cls-1" d="m37.43,102.91c3.66-10.17,7.82-9.6,7.82-9.6,0,0,11.72,4.2,13.08,9.23,0,0,1.66,5.14-9.9,4,0,0-5.68-.39-10.74-2.93,0,0-.38-.23-.27-.69h.01Z"/>
  <path class="cls-3" d="m45.53,92.13l-.12-.02c-.53-.07-5.24-.39-9.12,10.39l-.04.08-.02.07c-.21.91.26,1.66.83,2l.04.02.04.02c5.19,2.61,10.9,3.04,11.19,3.06,5.35.52,8.85-.2,10.42-2.14.49-.61.72-1.22.81-1.77.15-.87-.05-1.55-.09-1.66l.02.05c-1.48-5.48-12.58-9.61-13.84-10.05l-.12-.04Zm11.64,10.78v-.02c0,.07.15.66-.33,1.23-.48.57-2.25,1.82-8.31,1.22h-.04c-.05,0-5.11-.39-9.74-2.56,2.81-7.47,5.69-8.2,6.26-8.26,4.32,1.58,11.27,5.17,12.13,8.34l.02.05Z"/>
  <path class="cls-3" d="m43.44,94.98l.44.74-.44-.74Z"/>
  <path class="cls-2" d="m1.21,77.53c0,4.48,3.63,8.11,8.11,8.11s8.11-3.63,8.11-8.11-3.63-8.1-8.11-8.1-8.11,3.63-8.11,8.1"/>
  <path class="cls-3" d="m9.31,68.22c-5.14,0-9.31,4.18-9.31,9.31s4.17,9.32,9.31,9.32,9.32-4.18,9.32-9.32-4.18-9.31-9.32-9.31m0,16.21c-3.8,0-6.9-3.1-6.9-6.9s3.09-6.9,6.9-6.9,6.9,3.09,6.9,6.9-3.1,6.9-6.9,6.9"/>
  <path class="cls-2" d="m59.19,7.1s6.95,2.74,10.75,12.7c0,0,1.26,3.49,2.53,4.59,2.11,1.82,1.75,4.2,1.75,4.2,0,0,.38,7.18-3.45,10.98,0,0-4.62,3.17-9.68.96-5.06-2.21-10.75-8.22-11.07-18.65-.31-10.43,9.17-14.77,9.17-14.77"/>
  <path class="cls-3" d="m59.16,5.94l-.42.19c-.1.05-2.58,1.2-5.02,3.7-3.26,3.34-4.91,7.52-4.77,12.08.33,10.82,6.26,17.23,11.71,19.61,5.54,2.43,10.52-.91,10.72-1.06l.08-.05.07-.07c3.47-3.44,3.78-9.22,3.78-11.16,0-.26,0-.44,0-.55,0-.1.02-.25.02-.44,0-.97-.26-2.98-2.15-4.61-.77-.66-1.77-2.89-2.23-4.15-3.92-10.28-11.06-13.2-11.36-13.32l-.42-.17Zm10.92,32.8c-.61.38-4.47,2.59-8.56.8-4.84-2.12-10.13-7.88-10.42-17.7,0-.16,0-.32,0-.48,0-8.13,6.36-12.11,8.12-13.06,1.48.75,6.68,3.88,9.72,11.87.14.39,1.4,3.79,2.84,5.03,1.25,1.08,1.4,2.39,1.4,2.96,0,.16-.01.26-.01.28v.11s0,.1,0,.1c0,0,0,.18,0,.46,0,1.56-.23,6.74-3.08,9.63"/>
  <path class="cls-1" d="m10.5,56.01c-9.8,47.43,31.89,43.28,31.89,43.28,37.04,0,34.86-27.98,34.86-27.98,0-11.53-4.76-21.44-6.78-30.59-.07.05-.46-.81-.55-.82,0,0-14.43,2.4-17.68-14.23-2.53-12.96,9.81-16.44,9.81-16.44,0,0-3.48-5.06-10.12-6.32,0,0-12.97-4.75-22.76,8.53,0,0-7.27,9.17-12.01,23.72-4.74,14.54-6.64,20.87-6.64,20.87"/>
  <path class="cls-3" d="m44.07.84c-4.35.46-10.65,2.53-16,9.79.01-.01.02-.02.03-.04-.3.38-7.48,9.53-12.24,24.13-4.69,14.39-6.63,20.84-6.65,20.9-.01.04-.02.08-.03.11-3.23,15.62-1.31,27.49,5.69,35.27,4.2,4.66,10.32,7.8,17.69,9.09,5.27.92,9.37.59,9.9.54,13.06-.01,22.85-3.44,29.09-10.18,6.46-6.98,7.06-15.33,7.06-18.22,0-.53-.02-.87-.03-.99-.01-8-2.28-15.35-4.29-21.83-.97-3.14-1.89-6.1-2.53-8.99-.05-.22-.17-.42-.31-.58-.03-.05-.12-.21-.12-.21-.25-.45-.54-.97-1.23-1.07-.14-.02-.28-.02-.42,0-.54.09-13.19,1.94-16.14-13.17-.22-1.1-.31-2.13-.31-3.09,0-9.05,8.75-11.68,9.16-11.8.42-.12.75-.43.9-.84.05-.15.08-.3.08-.46,0-.27-.08-.53-.23-.76-.15-.22-3.83-5.46-10.85-6.85-.55-.19-3.83-1.22-8.23-.76m26.98,38.68c-.11-.06-.23-.1-.35-.12.14.02.25.07.35.12m.26.18s-.09-.07-.14-.1c.05.04.1.06.14.1m-1.8,1.98s-.01,0-.02-.01c0,0,.01,0,.02.01m.63.35c-.13-.03-.25-.08-.37-.15.11.06.23.12.37.15m-10.37-33.37c-1.24.57-2.91,1.5-4.49,2.92-2.29,2.06-4.74,5.48-4.74,10.71,0,1.12.11,2.33.37,3.63,1.79,9.21,6.92,12.89,10.91,14.36,3.11,1.14,5.98,1.14,7.39,1.04,0,0,.01.01.01.02.66,2.89,1.55,5.8,2.5,8.88,2.05,6.63,4.17,13.48,4.17,21.1,0,.03,0,.07,0,.1,0,.02.01.27.01.7,0,2.36-.47,10.2-6.36,16.55-5.73,6.16-14.87,9.29-27.17,9.29-.04,0-.09,0-.13,0-.16.01-16.21,1.46-25.4-8.76-4.34-4.82-6.51-11.47-6.51-19.85,0-3.96.49-8.3,1.46-13.01.2-.67,2.17-7.14,6.61-20.78,4.6-14.12,11.72-23.21,11.79-23.3.01-.01.02-.03.03-.04,3.8-5.15,8.52-8.08,14-8.7,4.13-.47,7.2.62,7.23.63.07.02.14.04.21.06,3.94.75,6.68,2.99,8.11,4.44"/>
  <path class="cls-2" d="m52.98,77.66c2.05.05,3.61-.29,4.24-1.42.49-.89-4.49-2.18-6.71-2.7-.14-1.17-.19-2.32-.15-3.44.08-2.83.67-5.43,1.35-7.51.51-1.56,1.07-2.83,1.49-3.7.21-.43.39-.76.51-.97.06-.11.1-.18.13-.23.01-.02.02-.04.03-.05.88-1.41.35-3.26-1.16-4.15-1.52-.89-3.46-.47-4.34.94-.08.14-1.52,2.45-2.73,6.17-.81,2.48-1.52,5.58-1.63,9.09-.09,2.96.26,6.21,1.37,9.56.29,1.01.89,2.65,2.12,5.08,2.35,4.64,8.35,4.52,10.82.88,2.47-3.64-5.34-7.56-5.34-7.56"/>
  <path class="cls-3" d="m47.34,53.8l-.02.03c-.38.62-1.7,2.93-2.84,6.41-1.02,3.13-1.59,6.31-1.68,9.43-.11,3.42.37,6.76,1.42,9.94.42,1.45,1.16,3.23,2.2,5.29,1.27,2.5,3.54,4.03,6.25,4.2,2.65.17,5.2-1.05,6.65-3.18.22-.33.39-.67.5-1.02.23-.69.25-1.42.05-2.16-.44-1.71-1.99-3.22-3.45-4.32.75-.3,1.42-.79,1.85-1.57.05-.08.08-.17.11-.26.11-.34.09-.72-.06-1.06-.24-.54-.65-1.44-6.69-2.94-.06-.8-.1-1.62-.07-2.44.07-2.35.5-4.76,1.29-7.17.5-1.54,1.06-2.77,1.43-3.53l.47-.91s.11-.19.12-.21c0,0,.01-.02.01-.02.18-.28.31-.57.41-.88.23-.71.26-1.48.07-2.23-.28-1.13-1.03-2.12-2.07-2.72-2.08-1.21-4.75-.61-5.97,1.34m2.07,20.72l.82.19c2.62.62,4.22,1.14,5.12,1.5-.55.18-1.33.27-2.34.24-.01,0-.03,0-.04,0-.06,0-.11.01-.17.02-.08.01-.15.02-.23.05-.05.02-.1.05-.14.07-.07.04-.14.08-.2.13-.04.03-.08.07-.12.11-.06.06-.1.13-.15.2-.02.03-.04.04-.05.07-.03.05-.05.11-.06.16,0,0,0,0,0,0-.04.11-.06.22-.06.34,0,.01,0,.03,0,.04,0,.06.02.11.03.17.01.08.02.16.05.23.02.05.05.09.07.14.04.07.08.14.13.2.04.04.07.08.11.12.06.06.13.11.2.15.02.01.04.04.07.05,1.74.88,4.66,2.9,5.1,4.59.07.29.07.54,0,.8-.05.14-.11.27-.21.42-.97,1.43-2.69,2.24-4.49,2.13-1.83-.11-3.38-1.16-4.25-2.88-1.22-2.4-1.78-3.97-2.04-4.87v-.02s-.01-.02-.01-.02c-.97-2.92-1.41-6-1.31-9.15.09-2.89.62-5.83,1.57-8.75,1.08-3.32,2.36-5.5,2.61-5.91.53-.86,1.74-1.09,2.7-.54.48.28.81.71.94,1.22.11.44.04.88-.19,1.25,0,0-.04.07-.05.07,0,0-.14.25-.14.25l-.53,1.03c-.41.83-1.01,2.18-1.56,3.85-.86,2.63-1.33,5.27-1.41,7.85-.04,1.21.02,2.43.16,3.62l.1.84Zm-5.2,5.07v.05s0-.03,0-.04c0,0,0,0,0,0"/>
  <path class="cls-3" d="m59.88,17.88v1.68h7.1c-.37-1.49-4.18-1.93-7.1-1.68"/>
  <path class="cls-3" d="m66.47,22.48c0,.89-.72,1.61-1.62,1.61s-1.62-.72-1.62-1.61.73-1.61,1.62-1.61,1.62.72,1.62,1.61"/>
  <path class="cls-3" d="m75.08,23.87c3.92,1.71.62,4.59.62,4.59,0,0-1.4,1.28-2.53-.25-.81-1.09-1.7-3.56-1.7-3.56,0,0,1-1.94,3.62-.79"/>
  <path class="cls-3" d="m72.78,33.3c1.04-.91,1.7-2.41,1.7-4.7,0-.28-.26-.5-.58-.5s-.58.22-.58.5c0,2.14-.6,3.33-1.36,3.99-.76.66-1.75.87-2.73.87-1.07,0-2.08-.27-2.5-.39-.14-.04-.2-.07-.2-.07-.29-.11-.63,0-.76.26-.12.25.01.55.3.65.04.01,1.45.54,3.15.54h.01c1.16,0,2.5-.26,3.54-1.17"/>
  <path class="cls-1" d="m43.38,9.84c-1.08-4.25-.48-7.19,3.61-8.3,4.1-1.11,5.7,2.93,5.7,2.93l1.49,2.24"/>
  <path class="cls-3" d="m53.87,3.82c.12.18,1.43,2.14,1.43,2.14.15.23.23.49.23.74,0,.43-.21.86-.6,1.12-.62.41-1.45.25-1.86-.37l-1.5-2.24c-.05-.07-.09-.16-.13-.24-.13-.3-1.29-2.9-4.1-2.13-2.52.68-3.84,2.03-2.67,6.68.18.72-.25,1.45-.97,1.63-.72.18-1.45-.25-1.63-.97-.51-2.01-2.06-8.14,4.57-9.93,4.04-1.09,6.45,1.78,7.23,3.57"/>
  <path class="cls-3" d="m47.07,9.55s.04.01.06.02c.21.04.44,0,.62-.12l2.75-1.79c.21-.14.34-.36.37-.61.03-.25-.06-.5-.23-.68-.02-.02-.28-.29-.68-.59-.41-.3-.94-.66-1.62-.8-.43-.09-.97-.07-1.45.22-.5.29-.76.81-.84,1.24-.13.7.02,1.32.15,1.81.15.49.31.83.32.86.11.22.3.38.53.45"/>
  <path class="cls-3" d="m76.72,79.53l-2.87.46c-5.4.47-12.01-7.33-13.2-17.43-1.19-10.09,1.4-17.29,9.37-19.31l2.13,3.33c-2.67.38-6.16,2.35-7.28,5.16-1.12,2.81-1.57,6.57-1.09,10.67.48,4.09,1.8,7.7,3.55,10.26,1.75,2.56,3.93,4.04,6.12,3.85,2.19-.19,3.97-2.02,5.09-4.82l-1.81,7.84Z"/>
  <path class="cls-3" d="m73.67,59.2c-.62.37-1,1.6-.87,2.98.15,1.61.94,2.96,1.77,2.87.93-.11,1.84-1.27,2.51-3.01.8-2.06-2.91-10.5-2.91-10.5l-5.83.68c-.88.1-1.56,1.47-1.4,3.08.15,1.62,1.04,2.73,1.94,2.62l5.71-.66c0,.73-.29,1.56-.92,1.94"/>
  <path class="cls-3" d="m72,62.3c-.12-1.32.17-2.53.7-3.22-.27-.19-.61-.31-.98-.25-1.12.18-1.57,1.3-1.47,3.73.15,2.98-.55,5.18-1.68,6.45-.65.73-.89,1.99-.59,3.28.35,1.55,1.19,2.08,2.02,1.86,1.98-.49,3.47-4.94,3.65-8.52-.82-.4-1.51-1.74-1.65-3.32"/>
</svg>