<svg width="24" height="25" viewBox="0 0 24 25" fill="none" xmlns="http://www.w3.org/2000/svg">
<path d="M12 14.4L13.5 15.55C13.6833 15.7 13.8833 15.7042 14.1 15.5625C14.3167 15.4208 14.3833 15.2333 14.3 15L13.7 13.1L15.375 11.8C15.5583 11.65 15.6083 11.4625 15.525 11.2375C15.4417 11.0125 15.2833 10.9 15.05 10.9H13.1L12.475 8.975C12.3917 8.74167 12.2333 8.625 12 8.625C11.7667 8.625 11.6083 8.74167 11.525 8.975L10.9 10.9H8.925C8.69167 10.9 8.5375 11.0125 8.4625 11.2375C8.3875 11.4625 8.44167 11.65 8.625 11.8L10.25 13.1L9.65 15.025C9.56667 15.2583 9.625 15.4458 9.825 15.5875C10.025 15.7292 10.225 15.725 10.425 15.575L12 14.4ZM4 20.5C3.45 20.5 2.97917 20.3042 2.5875 19.9125C2.19583 19.5208 2 19.05 2 18.5V15.125C2 14.9417 2.05833 14.7833 2.175 14.65C2.29167 14.5167 2.44167 14.4333 2.625 14.4C3.025 14.2667 3.35417 14.025 3.6125 13.675C3.87083 13.325 4 12.9333 4 12.5C4 12.0667 3.87083 11.675 3.6125 11.325C3.35417 10.975 3.025 10.7333 2.625 10.6C2.44167 10.5667 2.29167 10.4833 2.175 10.35C2.05833 10.2167 2 10.0583 2 9.875V6.5C2 5.95 2.19583 5.47917 2.5875 5.0875C2.97917 4.69583 3.45 4.5 4 4.5H20C20.55 4.5 21.0208 4.69583 21.4125 5.0875C21.8042 5.47917 22 5.95 22 6.5V9.875C22 10.0583 21.9417 10.2167 21.825 10.35C21.7083 10.4833 21.5583 10.5667 21.375 10.6C20.975 10.7333 20.6458 10.975 20.3875 11.325C20.1292 11.675 20 12.0667 20 12.5C20 12.9333 20.1292 13.325 20.3875 13.675C20.6458 14.025 20.975 14.2667 21.375 14.4C21.5583 14.4333 21.7083 14.5167 21.825 14.65C21.9417 14.7833 22 14.9417 22 15.125V18.5C22 19.05 21.8042 19.5208 21.4125 19.9125C21.0208 20.3042 20.55 20.5 20 20.5H4ZM4 18.5H20V15.95C19.3833 15.5833 18.8958 15.0958 18.5375 14.4875C18.1792 13.8792 18 13.2167 18 12.5C18 11.7833 18.1792 11.1208 18.5375 10.5125C18.8958 9.90417 19.3833 9.41667 20 9.05V6.5H4V9.05C4.61667 9.41667 5.10417 9.90417 5.4625 10.5125C5.82083 11.1208 6 11.7833 6 12.5C6 13.2167 5.82083 13.8792 5.4625 14.4875C5.10417 15.0958 4.61667 15.5833 4 15.95V18.5Z" fill="url(#paint0_linear_26_2086)"/>
<defs>
<linearGradient id="paint0_linear_26_2086" x1="2.16181" y1="6.55406" x2="24.3864" y2="7.84658" gradientUnits="userSpaceOnUse">
<stop stop-color="#BB52F5"/>
<stop offset="1" stop-color="#802BE1"/>
</linearGradient>
</defs>
</svg>
