<svg width="57" height="48" viewBox="0 0 57 48" fill="none" xmlns="http://www.w3.org/2000/svg">
<g filter="url(#filter0_dddd_35_660)">
<circle cx="20" cy="24" r="19" fill="white"/>
<path d="M24.4957 24C24.4957 24.1444 24.4732 24.2798 24.428 24.4062C24.3829 24.5326 24.3062 24.65 24.1978 24.7583L19.2145 29.7416C19.0159 29.9403 18.7631 30.0396 18.4562 30.0396C18.1492 30.0396 17.8964 29.9403 17.6978 29.7416C17.4992 29.543 17.3999 29.2903 17.3999 28.9833C17.3999 28.6764 17.4992 28.4236 17.6978 28.225L21.9228 24L17.6978 19.775C17.4992 19.5764 17.3999 19.3236 17.3999 19.0166C17.3999 18.7097 17.4992 18.4569 17.6978 18.2583C17.8964 18.0597 18.1492 17.9604 18.4562 17.9604C18.7631 17.9604 19.0159 18.0597 19.2145 18.2583L24.1978 23.2416C24.3062 23.35 24.3829 23.4673 24.428 23.5937C24.4732 23.7201 24.4957 23.8555 24.4957 24Z" fill="url(#paint0_linear_35_660)"/>
</g>
<defs>
<filter id="filter0_dddd_35_660" x="0" y="0" width="57" height="48" filterUnits="userSpaceOnUse" color-interpolation-filters="sRGB">
<feFlood flood-opacity="0" result="BackgroundImageFix"/>
<feColorMatrix in="SourceAlpha" type="matrix" values="0 0 0 0 0 0 0 0 0 0 0 0 0 0 0 0 0 0 127 0" result="hardAlpha"/>
<feOffset dx="1"/>
<feGaussianBlur stdDeviation="1"/>
<feColorMatrix type="matrix" values="0 0 0 0 0 0 0 0 0 0 0 0 0 0 0 0 0 0 0.1 0"/>
<feBlend mode="normal" in2="BackgroundImageFix" result="effect1_dropShadow_35_660"/>
<feColorMatrix in="SourceAlpha" type="matrix" values="0 0 0 0 0 0 0 0 0 0 0 0 0 0 0 0 0 0 127 0" result="hardAlpha"/>
<feOffset dx="3"/>
<feGaussianBlur stdDeviation="1.5"/>
<feColorMatrix type="matrix" values="0 0 0 0 0 0 0 0 0 0 0 0 0 0 0 0 0 0 0.09 0"/>
<feBlend mode="normal" in2="effect1_dropShadow_35_660" result="effect2_dropShadow_35_660"/>
<feColorMatrix in="SourceAlpha" type="matrix" values="0 0 0 0 0 0 0 0 0 0 0 0 0 0 0 0 0 0 127 0" result="hardAlpha"/>
<feOffset dx="7"/>
<feGaussianBlur stdDeviation="2"/>
<feColorMatrix type="matrix" values="0 0 0 0 0 0 0 0 0 0 0 0 0 0 0 0 0 0 0.05 0"/>
<feBlend mode="normal" in2="effect2_dropShadow_35_660" result="effect3_dropShadow_35_660"/>
<feColorMatrix in="SourceAlpha" type="matrix" values="0 0 0 0 0 0 0 0 0 0 0 0 0 0 0 0 0 0 127 0" result="hardAlpha"/>
<feOffset dx="13"/>
<feGaussianBlur stdDeviation="2.5"/>
<feColorMatrix type="matrix" values="0 0 0 0 0 0 0 0 0 0 0 0 0 0 0 0 0 0 0.01 0"/>
<feBlend mode="normal" in2="effect3_dropShadow_35_660" result="effect4_dropShadow_35_660"/>
<feBlend mode="normal" in="SourceGraphic" in2="effect4_dropShadow_35_660" result="shape"/>
</filter>
<linearGradient id="paint0_linear_35_660" x1="18.3109" y1="29.9418" x2="19.3709" y2="16.5577" gradientUnits="userSpaceOnUse">
<stop stop-color="#BB52F5"/>
<stop offset="1" stop-color="#802BE1"/>
</linearGradient>
</defs>
</svg>
