<?xml version="1.0" encoding="UTF-8"?>
<svg xmlns="http://www.w3.org/2000/svg" xmlns:xlink="http://www.w3.org/1999/xlink" viewBox="0 0 51.83 51.47">
  <defs>
    <style>
      .cls-1 {
        fill: none;
      }

      .cls-2 {
        clip-path: url(#clippath);
      }

      .cls-3 {
        fill: #ede93f;
      }

      .cls-4 {
        fill: #fff;
      }

      .cls-5 {
        fill: #b5b5b5;
      }

      .cls-6 {
        fill: #9d9d9e;
      }

      .cls-7 {
        fill: #9e9e9f;
      }

      .cls-8 {
        fill: #aeadae;
      }

      .cls-9, .cls-10 {
        fill: #e1e0e1;
      }

      .cls-11 {
        fill: #070404;
      }

      .cls-12 {
        fill: #5a5858;
      }

      .cls-13 {
        opacity: .1;
      }

      .cls-13, .cls-14 {
        mix-blend-mode: multiply;
      }

      .cls-15 {
        clip-path: url(#clippath-1);
      }

      .cls-16 {
        filter: url(#drop-shadow-1);
      }

      .cls-14 {
        fill: url(#_新規パターンスウォッチ_9);
      }

      .cls-10 {
        filter: url(#drop-shadow-2);
      }

      .cls-17 {
        isolation: isolate;
      }
    </style>
    <clipPath id="clippath">
      <circle class="cls-1" cx="26.93" cy="26.57" r="24.53"/>
    </clipPath>
    <pattern id="_新規パターンスウォッチ_9" data-name="新規パターンスウォッチ 9" x="0" y="0" width="155.16" height="155.16" patternTransform="translate(-4877.55 -7237.89) rotate(-30) scale(.28)" patternUnits="userSpaceOnUse" viewBox="0 0 155.16 155.16">
      <g>
        <rect class="cls-1" y="0" width="155.16" height="155.16"/>
        <rect class="cls-9" width="155.16" height="4.16"/>
        <rect class="cls-9" y="12.64" width="155.16" height="8.78"/>
        <rect class="cls-9" y="29.9" width="155.16" height="8.78"/>
        <rect class="cls-9" y="47.17" width="155.16" height="8.78"/>
        <rect class="cls-9" y="64.43" width="155.16" height="8.78"/>
        <rect class="cls-9" y="81.69" width="155.16" height="8.78"/>
        <rect class="cls-9" y="98.95" width="155.16" height="8.78"/>
        <rect class="cls-9" y="116.21" width="155.16" height="8.78"/>
        <rect class="cls-9" y="133.48" width="155.16" height="8.78"/>
        <rect class="cls-9" y="150.74" width="155.16" height="4.42"/>
      </g>
    </pattern>
    <filter id="drop-shadow-1" filterUnits="userSpaceOnUse">
      <feOffset dx=".2" dy=".2"/>
      <feGaussianBlur result="blur" stdDeviation="0"/>
      <feFlood flood-color="#070404" flood-opacity=".2"/>
      <feComposite in2="blur" operator="in"/>
      <feComposite in="SourceGraphic"/>
    </filter>
    <filter id="drop-shadow-2" filterUnits="userSpaceOnUse">
      <feOffset dx=".2" dy=".2"/>
      <feGaussianBlur result="blur-2" stdDeviation="0"/>
      <feFlood flood-color="#070404" flood-opacity=".2"/>
      <feComposite in2="blur-2" operator="in"/>
      <feComposite in="SourceGraphic"/>
    </filter>
    <clipPath id="clippath-1">
      <circle class="cls-1" cx="24.9" cy="24.9" r="24.08"/>
    </clipPath>
  </defs>
  <g class="cls-17">
    <g id="Layer_1" data-name="Layer 1">
      <g>
        <g>
          <circle class="cls-6" cx="26.93" cy="26.57" r="24.53"/>
          <path class="cls-11" d="m26.93,51.47c-13.73,0-24.9-11.17-24.9-24.9S13.2,1.67,26.93,1.67s24.9,11.17,24.9,24.9-11.17,24.9-24.9,24.9Zm0-49.05C13.61,2.42,2.78,13.25,2.78,26.57s10.83,24.15,24.15,24.15,24.15-10.83,24.15-24.15S40.24,2.42,26.93,2.42Z"/>
        </g>
        <g class="cls-2">
          <g>
            <g>
              <line class="cls-3" x1="49.5" y1="4.99" x2="69.6" y2="24.86"/>
              <path class="cls-11" d="m69.6,25.24c-.1,0-.19-.04-.26-.11L49.24,5.25c-.15-.15-.15-.38,0-.53s.38-.15.53,0l20.1,19.88c.15.15.15.38,0,.53-.07.07-.17.11-.27.11Z"/>
            </g>
            <g>
              <line class="cls-3" x1="48.33" y1="6.17" x2="68.43" y2="26.05"/>
              <path class="cls-11" d="m68.43,26.43c-.1,0-.19-.04-.26-.11L48.06,6.44c-.15-.15-.15-.38,0-.53.15-.15.38-.15.53,0l20.1,19.88c.15.15.15.38,0,.53-.07.07-.17.11-.27.11Z"/>
            </g>
            <g>
              <line class="cls-3" x1="47.15" y1="7.36" x2="67.25" y2="27.24"/>
              <path class="cls-11" d="m67.25,27.62c-.1,0-.19-.04-.26-.11L46.89,7.63c-.15-.15-.15-.38,0-.53.15-.15.38-.15.53,0l20.1,19.88c.15.15.15.38,0,.53-.07.07-.17.11-.27.11Z"/>
            </g>
            <g>
              <line class="cls-3" x1="45.98" y1="8.55" x2="66.08" y2="28.43"/>
              <path class="cls-11" d="m66.08,28.8c-.1,0-.19-.04-.26-.11l-20.1-19.88c-.15-.15-.15-.38,0-.53.15-.15.38-.15.53,0l20.1,19.88c.15.15.15.38,0,.53-.07.07-.17.11-.27.11Z"/>
            </g>
            <g>
              <line class="cls-3" x1="44.8" y1="9.74" x2="64.9" y2="29.62"/>
              <path class="cls-11" d="m64.9,29.99c-.1,0-.19-.04-.26-.11l-20.1-19.88c-.15-.15-.15-.38,0-.53.15-.15.38-.15.53,0l20.1,19.88c.15.15.15.38,0,.53-.07.07-.17.11-.27.11Z"/>
            </g>
            <g>
              <line class="cls-3" x1="43.63" y1="10.93" x2="63.73" y2="30.81"/>
              <path class="cls-11" d="m63.73,31.18c-.1,0-.19-.04-.26-.11l-20.1-19.88c-.15-.15-.15-.38,0-.53.15-.15.38-.15.53,0l20.1,19.88c.15.15.15.38,0,.53-.07.07-.17.11-.27.11Z"/>
            </g>
            <g>
              <line class="cls-3" x1="42.45" y1="12.12" x2="62.55" y2="31.99"/>
              <path class="cls-11" d="m62.55,32.37c-.1,0-.19-.04-.26-.11l-20.1-19.88c-.15-.15-.15-.38,0-.53.15-.15.38-.15.53,0l20.1,19.88c.15.15.15.38,0,.53-.07.07-.17.11-.27.11Z"/>
            </g>
            <g>
              <line class="cls-3" x1="41.28" y1="13.31" x2="61.38" y2="33.18"/>
              <path class="cls-11" d="m61.38,33.56c-.1,0-.19-.04-.26-.11l-20.1-19.88c-.15-.15-.15-.38,0-.53.15-.15.38-.15.53,0l20.1,19.88c.15.15.15.38,0,.53-.07.07-.17.11-.27.11Z"/>
            </g>
            <g>
              <line class="cls-3" x1="40.1" y1="14.49" x2="60.2" y2="34.37"/>
              <path class="cls-11" d="m60.2,34.75c-.1,0-.19-.04-.26-.11l-20.1-19.88c-.15-.15-.15-.38,0-.53.15-.15.38-.15.53,0l20.1,19.88c.15.15.15.38,0,.53-.07.07-.17.11-.27.11Z"/>
            </g>
            <g>
              <line class="cls-3" x1="38.92" y1="15.68" x2="59.03" y2="35.56"/>
              <path class="cls-11" d="m59.03,35.94c-.1,0-.19-.04-.26-.11l-20.1-19.88c-.15-.15-.15-.38,0-.53.15-.15.38-.15.53,0l20.1,19.88c.15.15.15.38,0,.53-.07.07-.17.11-.27.11Z"/>
            </g>
            <g>
              <line class="cls-3" x1="37.75" y1="16.87" x2="57.85" y2="36.75"/>
              <path class="cls-11" d="m57.85,37.13c-.1,0-.19-.04-.26-.11l-20.1-19.88c-.15-.15-.15-.38,0-.53.15-.15.38-.15.53,0l20.1,19.88c.15.15.15.38,0,.53-.07.07-.17.11-.27.11Z"/>
            </g>
            <g>
              <line class="cls-3" x1="36.57" y1="18.06" x2="56.67" y2="37.94"/>
              <path class="cls-11" d="m56.67,38.31c-.1,0-.19-.04-.26-.11l-20.1-19.88c-.15-.15-.15-.38,0-.53.15-.15.38-.15.53,0l20.1,19.88c.15.15.15.38,0,.53-.07.07-.17.11-.27.11Z"/>
            </g>
            <g>
              <line class="cls-3" x1="35.4" y1="19.25" x2="55.5" y2="39.13"/>
              <path class="cls-11" d="m55.5,39.5c-.1,0-.19-.04-.26-.11l-20.1-19.88c-.15-.15-.15-.38,0-.53.15-.15.38-.15.53,0l20.1,19.88c.15.15.15.38,0,.53-.07.07-.17.11-.27.11Z"/>
            </g>
            <g>
              <line class="cls-3" x1="34.22" y1="20.44" x2="54.32" y2="40.32"/>
              <path class="cls-11" d="m54.32,40.69c-.1,0-.19-.04-.26-.11l-20.1-19.88c-.15-.15-.15-.38,0-.53s.38-.15.53,0l20.1,19.88c.15.15.15.38,0,.53-.07.07-.17.11-.27.11Z"/>
            </g>
            <g>
              <line class="cls-3" x1="33.05" y1="21.63" x2="53.15" y2="41.5"/>
              <path class="cls-11" d="m53.15,41.88c-.1,0-.19-.04-.26-.11l-20.1-19.88c-.15-.15-.15-.38,0-.53.15-.15.38-.15.53,0l20.1,19.88c.15.15.15.38,0,.53-.07.07-.17.11-.27.11Z"/>
            </g>
            <g>
              <line class="cls-3" x1="31.87" y1="22.82" x2="51.97" y2="42.69"/>
              <path class="cls-11" d="m51.97,43.07c-.1,0-.19-.04-.26-.11l-20.1-19.88c-.15-.15-.15-.38,0-.53.15-.15.38-.15.53,0l20.1,19.88c.15.15.15.38,0,.53-.07.07-.17.11-.27.11Z"/>
            </g>
            <g>
              <line class="cls-3" x1="30.7" y1="24" x2="50.8" y2="43.88"/>
              <path class="cls-11" d="m50.8,44.26c-.1,0-.19-.04-.26-.11l-20.1-19.88c-.15-.15-.15-.38,0-.53.15-.15.38-.15.53,0l20.1,19.88c.15.15.15.38,0,.53-.07.07-.17.11-.27.11Z"/>
            </g>
            <g>
              <line class="cls-3" x1="29.52" y1="25.19" x2="49.62" y2="45.07"/>
              <path class="cls-11" d="m49.62,45.45c-.1,0-.19-.04-.26-.11l-20.1-19.88c-.15-.15-.15-.38,0-.53.15-.15.38-.15.53,0l20.1,19.88c.15.15.15.38,0,.53-.07.07-.17.11-.27.11Z"/>
            </g>
            <g>
              <line class="cls-3" x1="28.35" y1="26.38" x2="48.45" y2="46.26"/>
              <path class="cls-11" d="m48.45,46.63c-.1,0-.19-.04-.26-.11l-20.1-19.88c-.15-.15-.15-.38,0-.53.15-.15.38-.15.53,0l20.1,19.88c.15.15.15.38,0,.53-.07.07-.17.11-.27.11Z"/>
            </g>
            <g>
              <line class="cls-3" x1="27.17" y1="27.57" x2="47.27" y2="47.45"/>
              <path class="cls-11" d="m47.27,47.82c-.1,0-.19-.04-.26-.11l-20.1-19.88c-.15-.15-.15-.38,0-.53.15-.15.38-.15.53,0l20.1,19.88c.15.15.15.38,0,.53-.07.07-.17.11-.27.11Z"/>
            </g>
            <g>
              <line class="cls-3" x1="26" y1="28.76" x2="46.1" y2="48.64"/>
              <path class="cls-11" d="m46.1,49.01c-.1,0-.19-.04-.26-.11l-20.1-19.88c-.15-.15-.15-.38,0-.53.15-.15.38-.15.53,0l20.1,19.88c.15.15.15.38,0,.53-.07.07-.17.11-.27.11Z"/>
            </g>
            <g>
              <line class="cls-3" x1="24.82" y1="29.95" x2="44.92" y2="49.82"/>
              <path class="cls-11" d="m44.92,50.2c-.1,0-.19-.04-.26-.11l-20.1-19.88c-.15-.15-.15-.38,0-.53.15-.15.38-.15.53,0l20.1,19.88c.15.15.15.38,0,.53-.07.07-.17.11-.27.11Z"/>
            </g>
            <g>
              <line class="cls-3" x1="23.64" y1="31.14" x2="43.75" y2="51.01"/>
              <path class="cls-11" d="m43.75,51.39c-.1,0-.19-.04-.26-.11l-20.1-19.88c-.15-.15-.15-.38,0-.53.15-.15.38-.15.53,0l20.1,19.88c.15.15.15.38,0,.53-.07.07-.17.11-.27.11Z"/>
            </g>
            <g>
              <line class="cls-3" x1="22.47" y1="32.32" x2="42.57" y2="52.2"/>
              <path class="cls-11" d="m42.57,52.58c-.1,0-.19-.04-.26-.11l-20.1-19.88c-.15-.15-.15-.38,0-.53.15-.15.38-.15.53,0l20.1,19.88c.15.15.15.38,0,.53-.07.07-.17.11-.27.11Z"/>
            </g>
            <g>
              <line class="cls-3" x1="21.29" y1="33.51" x2="41.39" y2="53.39"/>
              <path class="cls-11" d="m41.39,53.77c-.1,0-.19-.04-.26-.11l-20.1-19.88c-.15-.15-.15-.38,0-.53.15-.15.38-.15.53,0l20.1,19.88c.15.15.15.38,0,.53-.07.07-.17.11-.27.11Z"/>
            </g>
            <g>
              <line class="cls-3" x1="20.12" y1="34.7" x2="40.22" y2="54.58"/>
              <path class="cls-11" d="m40.22,54.96c-.1,0-.19-.04-.26-.11l-20.1-19.88c-.15-.15-.15-.38,0-.53.15-.15.38-.15.53,0l20.1,19.88c.15.15.15.38,0,.53-.07.07-.17.11-.27.11Z"/>
            </g>
            <g>
              <line class="cls-3" x1="18.94" y1="35.89" x2="39.04" y2="55.77"/>
              <path class="cls-11" d="m39.04,56.14c-.1,0-.19-.04-.26-.11l-20.1-19.88c-.15-.15-.15-.38,0-.53.15-.15.38-.15.53,0l20.1,19.88c.15.15.15.38,0,.53-.07.07-.17.11-.27.11Z"/>
            </g>
            <g>
              <line class="cls-3" x1="17.77" y1="37.08" x2="37.87" y2="56.96"/>
              <path class="cls-11" d="m37.87,57.33c-.1,0-.19-.04-.26-.11l-20.1-19.88c-.15-.15-.15-.38,0-.53.15-.15.38-.15.53,0l20.1,19.88c.15.15.15.38,0,.53-.07.07-.17.11-.27.11Z"/>
            </g>
            <g>
              <line class="cls-3" x1="16.59" y1="38.27" x2="36.69" y2="58.14"/>
              <path class="cls-11" d="m36.69,58.52c-.1,0-.19-.04-.26-.11l-20.1-19.88c-.15-.15-.15-.38,0-.53s.38-.15.53,0l20.1,19.88c.15.15.15.38,0,.53-.07.07-.17.11-.27.11Z"/>
            </g>
            <g>
              <line class="cls-3" x1="15.42" y1="39.46" x2="35.52" y2="59.33"/>
              <path class="cls-11" d="m35.52,59.71c-.1,0-.19-.04-.26-.11l-20.1-19.88c-.15-.15-.15-.38,0-.53.15-.15.38-.15.53,0l20.1,19.88c.15.15.15.38,0,.53-.07.07-.17.11-.27.11Z"/>
            </g>
            <g>
              <line class="cls-3" x1="14.24" y1="40.65" x2="34.34" y2="60.52"/>
              <path class="cls-11" d="m34.34,60.9c-.1,0-.19-.04-.26-.11l-20.1-19.88c-.15-.15-.15-.38,0-.53s.38-.15.53,0l20.1,19.88c.15.15.15.38,0,.53-.07.07-.17.11-.27.11Z"/>
            </g>
            <g>
              <line class="cls-3" x1="13.07" y1="41.83" x2="33.17" y2="61.71"/>
              <path class="cls-11" d="m33.17,62.09c-.1,0-.19-.04-.26-.11l-20.1-19.88c-.15-.15-.15-.38,0-.53.15-.15.38-.15.53,0l20.1,19.88c.15.15.15.38,0,.53-.07.07-.17.11-.27.11Z"/>
            </g>
            <g>
              <line class="cls-3" x1="11.89" y1="43.02" x2="31.99" y2="62.9"/>
              <path class="cls-11" d="m31.99,63.28c-.1,0-.19-.04-.26-.11l-20.1-19.88c-.15-.15-.15-.38,0-.53.15-.15.38-.15.53,0l20.1,19.88c.15.15.15.38,0,.53-.07.07-.17.11-.27.11Z"/>
            </g>
            <g>
              <line class="cls-3" x1="10.72" y1="44.21" x2="30.82" y2="64.09"/>
              <path class="cls-11" d="m30.82,64.46c-.1,0-.19-.04-.26-.11l-20.1-19.88c-.15-.15-.15-.38,0-.53.15-.15.38-.15.53,0l20.1,19.88c.15.15.15.38,0,.53-.07.07-.17.11-.27.11Z"/>
            </g>
            <g>
              <line class="cls-3" x1="9.54" y1="45.4" x2="29.64" y2="65.28"/>
              <path class="cls-11" d="m29.64,65.65c-.1,0-.19-.04-.26-.11l-20.1-19.88c-.15-.15-.15-.38,0-.53.15-.15.38-.15.53,0l20.1,19.88c.15.15.15.38,0,.53-.07.07-.17.11-.27.11Z"/>
            </g>
          </g>
        </g>
        <g>
          <g>
            <circle class="cls-6" cx="24.9" cy="24.9" r="24.53"/>
            <circle class="cls-14" cx="24.9" cy="24.9" r="24.53"/>
          </g>
          <path class="cls-11" d="m24.94,49.79c-8.61,0-17-4.47-21.61-12.45C-3.53,25.46.55,10.2,12.45,3.33,24.34-3.53,39.6.55,46.46,12.45h0c6.87,11.89,2.78,27.15-9.11,34.02-3.91,2.26-8.19,3.33-12.41,3.33Zm-.08-49.04c-4.09,0-8.24,1.04-12.03,3.23C1.29,10.64-2.67,25.44,3.98,36.97c6.66,11.53,21.46,15.5,32.99,8.84,11.53-6.66,15.5-21.46,8.84-32.99C41.34,5.08,33.21.75,24.86.75Z"/>
        </g>
        <g class="cls-16">
          <path class="cls-9" d="m11.93,7.2l-.32,1.41,1.27.75v.02s-1.47.14-1.47.14l-.32,1.44h-.02s-.58-1.35-.58-1.35l-1.44.13-.02-.02,1.09-.96-.58-1.35.02-.02,1.26.74,1.09-.96.02.02Z"/>
          <path class="cls-9" d="m17.41,4.28l-.7,1.27,1.01,1.08h-.01s-1.45-.27-1.45-.27l-.72,1.29h-.02s-.17-1.46-.17-1.46l-1.42-.28v-.02s1.3-.61,1.3-.61l-.17-1.45h.02s1,1.06,1,1.06l1.31-.61v.02Z"/>
          <path class="cls-9" d="m23.5,3.02l-1.03,1.02.67,1.31h-.02s-1.31-.67-1.31-.67l-1.05,1.03h-.02s.25-1.46.25-1.46l-1.29-.67v-.02s1.43-.22,1.43-.22l.24-1.44h.02s.66,1.3.66,1.3l1.43-.22v.02Z"/>
          <path class="cls-9" d="m29.69,3.49l-1.27.69.27,1.45h-.02s-1.07-1.01-1.07-1.01l-1.29.7h-.02s.64-1.34.64-1.34l-1.05-1v-.03s1.44.19,1.44.19l.64-1.32h.02s.27,1.44.27,1.44l1.44.19v.02Z"/>
          <path class="cls-9" d="m35.51,5.7l-1.42.3-.15,1.47h-.02s-.74-1.27-.74-1.27l-1.44.31h-.01s.99-1.11.99-1.11l-.72-1.25v-.02s1.33.59,1.33.59l.98-1.09h.02s-.15,1.47-.15,1.47l1.32.59v.02Z"/>
          <path class="cls-9" d="m40.46,9.45l-1.45-.11-.55,1.37h-.02s-.35-1.43-.35-1.43l-1.47-.11v-.02s1.25-.77,1.25-.77l-.35-1.41.02-.02,1.11.94,1.25-.77.02.02-.55,1.36,1.11.94-.02.02Z"/>
          <path class="cls-9" d="m44.16,14.42l-1.36-.51-.91,1.16h-.02s.06-1.48.06-1.48l-1.38-.52v-.02s1.42-.39,1.42-.39l.06-1.45h.02s.8,1.19.8,1.19l1.41-.39v.02s-.89,1.15-.89,1.15l.8,1.21h-.02Z"/>
          <path class="cls-9" d="m46.33,20.25l-1.16-.87-1.2.85h-.01s.47-1.41.47-1.41l-1.18-.88v-.02s1.48.03,1.48.03l.47-1.37h.02s.43,1.38.43,1.38l1.46.03v.02s-1.19.85-1.19.85l.43,1.39h-.02Z"/>
          <path class="cls-9" d="m46.77,26.45l-.87-1.16-1.39.48v-.02s.83-1.21.83-1.21l-.88-1.18v-.02s1.41.44,1.41.44l.83-1.18h.02s.02,1.45.02,1.45l1.4.43v.02l-1.38.48.02,1.45h-.03Z"/>
          <path class="cls-9" d="m45.46,32.53l-.51-1.35-1.47.07v-.02s1.14-.92,1.14-.92l-.52-1.38h.01s1.23.8,1.23.8l1.13-.9h.02s-.38,1.4-.38,1.4l1.22.81v.02s-1.47.07-1.47.07l-.38,1.4h-.02Z"/>
          <path class="cls-9" d="m42.49,37.98l-.11-1.44-1.43-.34v-.02s1.36-.56,1.36-.56l-.11-1.47h.02s.95,1.12.95,1.12l1.34-.55h.02s-.76,1.25-.76,1.25l.94,1.12v.02s-1.44-.34-1.44-.34l-.76,1.23h-.02Z"/>
          <path class="cls-9" d="m38.12,42.39l.3-1.42-1.28-.73v-.02s1.47-.16,1.47-.16l.31-1.44h.02s.6,1.34.6,1.34l1.44-.15.02.02-1.08.97.59,1.34-.02.02-1.27-.73-1.08.97-.02-.02Z"/>
          <path class="cls-9" d="m32.68,45.4l.68-1.28-1.02-1.06h.01s1.45.25,1.45.25l.7-1.3h.02s.19,1.46.19,1.46l1.42.26v.02s-1.29.63-1.29.63l.19,1.45h-.02s-1.02-1.04-1.02-1.04l-1.31.63v-.02Z"/>
          <path class="cls-9" d="m26.62,46.76l1.01-1.03-.69-1.3h.01s1.32.64,1.32.64l1.03-1.05h.02s-.22,1.46-.22,1.46l1.3.65v.02s-1.43.24-1.43.24l-.22,1.45h-.02s-.68-1.29-.68-1.29l-1.43.24v-.02Z"/>
          <path class="cls-9" d="m20.42,46.37l1.26-.71-.29-1.44h.02s1.08.99,1.08.99l1.28-.72h.02s-.62,1.35-.62,1.35l1.06.98v.02s-1.44-.17-1.44-.17l-.62,1.33h-.02s-.29-1.44-.29-1.44l-1.44-.17v-.02Z"/>
          <path class="cls-9" d="m14.57,44.25l1.41-.32.12-1.47h.02s.76,1.26.76,1.26l1.44-.33h.01s-.97,1.12-.97,1.12l.74,1.24v.02s-1.34-.57-1.34-.57l-.96,1.1h-.02s.12-1.47.12-1.47l-1.33-.57v-.02Z"/>
          <path class="cls-9" d="m9.57,40.58l1.44.08.53-1.37h.02s.37,1.43.37,1.43l1.47.09v.02s-1.24.79-1.24.79l.37,1.4-.02.02-1.12-.92-1.23.79-.02-.02.53-1.37-1.12-.92.02-.02Z"/>
          <path class="cls-9" d="m5.78,35.65l1.36.48.89-1.17h.02s-.04,1.48-.04,1.48l1.39.49v.02s-1.41.41-1.41.41l-.04,1.45h-.02s-.82-1.18-.82-1.18l-1.41.41v-.02s.88-1.16.88-1.16l-.82-1.2h.02Z"/>
          <path class="cls-9" d="m3.53,29.85l1.17.85,1.19-.87h.01s-.45,1.41-.45,1.41l1.19.87v.02s-1.48,0-1.48,0l-.45,1.38h-.02s-.45-1.37-.45-1.37h-1.46s0-.03,0-.03l1.18-.86-.45-1.38h.02Z"/>
          <path class="cls-9" d="m3,23.67l.89,1.14,1.38-.51v.02s-.82,1.22-.82,1.22l.9,1.16v.02s-1.42-.42-1.42-.42l-.81,1.2h-.03s-.05-1.45-.05-1.45l-1.41-.41v-.02s1.38-.5,1.38-.5l-.05-1.45h.02Z"/>
          <path class="cls-9" d="m4.22,17.57l.53,1.35,1.47-.1v.02s-1.13.94-1.13.94l.54,1.37h-.01s-1.24-.78-1.24-.78l-1.12.92h-.02s.36-1.41.36-1.41l-1.23-.79v-.02s1.47-.09,1.47-.09l.36-1.4h.02Z"/>
          <path class="cls-9" d="m7.11,12.07l.13,1.44,1.44.32v.02s-1.35.58-1.35.58l.13,1.47h-.02s-.97-1.1-.97-1.1l-1.33.57h-.02s.74-1.26.74-1.26l-.96-1.11v-.02s1.44.32,1.44.32l.74-1.25h.02Z"/>
        </g>
        <circle class="cls-8" cx="24.9" cy="24.9" r="18.38"/>
        <circle class="cls-10" cx="24.9" cy="24.9" r="17.07" transform="translate(-5.05 43.41) rotate(-76.72)"/>
        <g>
          <path class="cls-6" d="m14.68,14.7l.43-.41,2.32,1.3-.39.36-.57-.35-.6.56.31.6-.37.35-1.13-2.4Zm1.01,1.1l.44-.41-.24-.15c-.24-.14-.48-.31-.72-.46h-.01c.14.26.28.52.41.76l.13.25Z"/>
          <path class="cls-6" d="m16.33,13.29l.74-.47c.45-.28.9-.35,1.21.14.2.32.17.62-.02.87l1.05.56-.48.3-.95-.53-.3.19.51.81-.43.27-1.36-2.14Zm1.33.55c.27-.17.35-.39.21-.61-.15-.23-.35-.21-.62-.04l-.28.18.41.65.28-.18Z"/>
          <path class="cls-6" d="m19.18,13.21l-.51-1.3.47-.18.52,1.34c.19.49.43.59.7.48.28-.11.39-.34.2-.83l-.52-1.34.45-.18.51,1.3c.31.78.1,1.24-.48,1.46-.57.22-1.04.04-1.35-.75Z"/>
          <path class="cls-6" d="m21.94,10.85l.58-.11,1.27,2.34-.52.1-.29-.61-.81.15-.05.67-.5.09.33-2.64Zm.26,1.47l.59-.11-.12-.26c-.13-.24-.25-.52-.37-.77h-.02c-.01.29-.03.58-.06.86l-.02.29Z"/>
          <path class="cls-6" d="m24.06,10.54h.88c.53,0,.95.18.95.76,0,.38-.19.62-.48.73l.6,1.03h-.56s-.52-.95-.52-.95h-.35s0,.96,0,.96h-.51s-.01-2.53-.01-2.53Zm.84,1.17c.32,0,.5-.14.5-.41,0-.27-.18-.36-.51-.36h-.33s0,.77,0,.77h.33Z"/>
          <path class="cls-6" d="m26.52,11.99l.26-1.37.5.1-.27,1.41c-.1.52.05.73.34.78.3.06.52-.08.62-.6l.27-1.41.48.09-.26,1.37c-.16.83-.57,1.1-1.18.98-.6-.12-.9-.52-.74-1.35Z"/>
          <path class="cls-6" d="m29.09,12.43c.31-.77.99-1.03,1.58-.79.3.12.48.36.57.58l-.36.2c-.08-.16-.18-.3-.36-.37-.36-.14-.74.06-.94.56-.2.51-.08.92.29,1.06.2.08.4.05.58-.04l.13.39c-.28.15-.58.17-.89.05-.59-.24-.91-.85-.59-1.64Z"/>
          <path class="cls-6" d="m31.69,12.85l.44.25-.94,1.67-.44-.25.94-1.67Zm.25-.53c.08-.14.24-.18.39-.09.15.08.2.24.12.38-.08.15-.24.18-.39.1-.15-.09-.2-.24-.12-.39Z"/>
          <path class="cls-6" d="m32.08,14.53l.49-.69-.22-.16.21-.3.26.15.35-.39.34.24-.3.42.39.27-.23.32-.39-.27-.49.69c-.13.18-.11.31.03.41.05.04.12.06.18.07l-.14.35c-.1-.03-.23-.08-.37-.17-.37-.26-.35-.6-.1-.95Z"/>
          <path class="cls-6" d="m32.25,16.37l.33-.22s.05.08.08.11c.14.13.31.12.46.03l.1-.06.74-1.88.37.35-.38.86c-.07.16-.17.33-.25.5h.01c.15-.09.31-.19.47-.29l.8-.47.35.33-1.84.97c-.43.21-.76.26-1.07-.03-.08-.08-.13-.14-.17-.21Z"/>
        </g>
        <path class="cls-5" d="m14.07,34.13l-.16.48s1.62.22,3.2,1.27c1.19.89,2.49,1.55,3.82,2.01-.11,1.75,2.03,1.96,2.1,1.92.05-.03-.42-.38-.63-1.23-.03-.11-.07-.22-.12-.31.35.08.71.14,1.06.2.14,1.59,2.12,1.54,2.17,1.5.05-.03-.44-.31-.73-1.08-.04-.11-.1-.21-.17-.3.3.01.6.02.9.02.4,1.43,2.24,1.13,2.29,1.08.04-.04-.47-.24-.85-.95-.05-.08-.1-.16-.16-.22.33-.04.66-.09.98-.16.62,1.49,2.44.76,2.48.71.03-.05-.49-.13-1.01-.72-.1-.11-.21-.2-.33-.26.37-.11.74-.23,1.1-.37,0,.03.02.08.02.08.85,1.39,2.54.36,2.57.3.02-.05-.51-.05-1.11-.54-.17-.13-.35-.21-.53-.25.39-.19.77-.4,1.14-.63.95,1.22,2.46.09,2.48.03.02-.05-.49,0-1.12-.42-.16-.11-.34-.17-.51-.19.38-.28.74-.58,1.09-.91.01.03.03.06.03.06,1.05,1.13,2.44-.14,2.45-.2.01-.05-.48.05-1.14-.3-.27-.14-.55-.16-.79-.12.26-.28.52-.57.75-.88.05-.06.1-.13.14-.19.38.16,1.17-.15,1.17-.15-.18.15-.77.34-1.06.31-.21-.02-.03.1-.03.1,1.38.66,2.19-1.01,2.18-1.07,0-.05-.42.22-1.16.14-.29-.03-.55.05-.75.17.38-.57.72-1.16.99-1.77,0,.01.02.02.03.02.39.13,1.14-.29,1.14-.29-.16.17-.7.42-.99.43-.2,0-.02.11-.02.11,1.42.48,2.01-1.25,1.99-1.3-.02-.05-.39.27-1.11.27-.39,0-.71.22-.89.42.24-.57.44-1.15.59-1.74,0,.06.02.09.06.1.41.02,1.02-.58,1.02-.58-.11.21-.57.59-.84.68-.19.06.01.11.01.11,1.5.08,1.61-1.73,1.57-1.79-.03-.04-.3.36-.99.56-.4.12-.66.44-.77.69.23-.97.34-1.96.34-2.96.01-.05.01-.12,0-.21-.01-.65-.07-1.29-.18-1.93.02,0,.05,0,.08,0,.11-.01.04-.28-.18-.53-.11-.52-.25-1.04-.42-1.55h0c.1-.02.03-.27-.18-.49-.18-.48-.4-.96-.64-1.42,0,0,.01,0,.01,0,.11-.03-.02-.31-.3-.51-.14-.24-.29-.48-.44-.71.02,0,.04.02.06.03,0,0,.18.03.04-.08-.19-.16-.42-.62-.44-.82,0,0,.29.67.62.8.15.06.21-.67-.27-1.06-.48-.39-.57-.8-.6-.77-.04.03-.5,1.34.46,1.85.14.22.29.45.42.67-.12-.06-.26-.1-.41-.11-.64-.03-.96-.32-.97-.28-.02.05.45,1.6,1.73,1.22,0,0,.07-.03.07-.06.18.36.35.73.49,1.1-.13-.09-.28-.16-.45-.19-.66-.1-.95-.44-.97-.4-.02.05.28,1.7,1.64,1.46,0,0,.06-.02.07-.04.13.4.23.81.32,1.22-.12-.09-.27-.17-.45-.21-.67-.14-.95-.49-.98-.45-.02.05.21,1.73,1.58,1.56.06.43.1.86.12,1.3-.1-.16-.24-.31-.44-.41-.62-.32-.81-.76-.84-.72-.04.04-.28,1.8,1.16,2,0,0,.2,0,.03-.1-.25-.14-.61-.59-.67-.81,0,0,.4.58.77.72,0,.56-.05,1.12-.13,1.67-.08-.22-.24-.46-.51-.61-.61-.35-.77-.8-.81-.76-.04.04-.37,1.78,1.07,2.05,0,0,.2,0,.03-.1-.24-.15-.58-.62-.64-.84,0,0,.39.63.76.77-.11.57-.26,1.14-.45,1.7-.03-.26-.15-.59-.44-.82-.56-.45-.66-.93-.7-.9-.05.04-.65,1.75.76,2.26,0,0,.21.04.05-.1-.22-.19-.49-.72-.51-.95,0,0,.32.75.69.92-.21.54-.46,1.07-.75,1.59.01-.24-.03-.52-.21-.77-.42-.59-.37-1.08-.42-1.06-.06.02-1.11,1.5.1,2.38,0,0,.19.09.08-.08-.16-.24-.27-.83-.23-1.06,0,0,.1.78.4,1.06-.21.33-.43.66-.68.97-.61.79-1.3,1.48-2.06,2.07.14-.24.25-.68.08-1.1-.29-.69-.14-1.17-.2-1.16-.06,0-1.45,1.27-.42,2.42,0,0,.17.14.09-.06-.11-.28-.09-.9,0-1.12,0,0-.08.88.2,1.19,0,0,0,0,.01,0-.48.36-.98.68-1.51.97.16-.23.29-.61.2-1-.17-.74.06-1.2,0-1.2-.06,0-1.68,1.03-.83,2.36,0,0,.15.16.1-.05-.06-.3.06-.92.19-1.12,0,0-.22.81-.02,1.2-.53.27-1.09.5-1.65.69.21-.21.42-.6.38-1.05-.08-.78.21-1.22.16-1.23-.07-.01-1.85.84-1.16,2.31,0,0,.13.19.11-.03-.02-.31.18-.93.34-1.12,0,0-.34.82-.18,1.23-.56.17-1.13.3-1.71.39.22-.19.47-.53.48-.96.03-.78.38-1.18.33-1.2-.06-.02-1.95.57-1.47,2.13,0,0,.1.2.11-.02.02-.31.31-.9.5-1.07,0,0-.42.73-.35,1.17-.27.03-.55.06-.82.08-.26-.08-.48-.06-.5.02-.23,0-.46,0-.69,0,.29-.09.69-.36.84-.83.26-.76.72-1.05.67-1.08-.06-.04-2.09,0-2.07,1.67,0,0,.04.23.12.02.11-.3.57-.8.8-.91,0,0-.69.64-.69,1.09,0,.01,0,.02,0,.03-.26-.01-.52-.03-.78-.06-.1-.03-.18-.04-.24-.03-.16-.02-.31-.04-.47-.07.27-.13.58-.4.71-.8.26-.78.73-1.08.68-1.11-.06-.04-2.13.01-2.1,1.72,0,0,0,.03.02.06-.27-.06-.55-.13-.82-.2-.16-.09-.29-.12-.37-.11-1.36-.43-2.68-1.07-3.9-1.95,0,0-2.36-1.53-3.3-1.44Zm22.31-14.12s-.03-.02-.08-.02c-.25-.02-.73-.26-.87-.42,0,0,.52.31.88.31.02.04.04.09.06.13Zm.78,1.91s-.03-.02-.07-.02c-.26-.05-.73-.35-.85-.53,0,0,.5.38.87.42.01.05.03.09.04.13Zm.48,2.04c-.27-.09-.68-.39-.8-.56,0,0,.42.34.78.44,0,.04.01.08.02.12Zm-3.57,11.17s.07-.06.1-.1c.36.22,1.06.22,1.06.22-.23.08-.85.03-1.11-.1-.02-.01-.04-.02-.05-.02Zm-1.87,1.47s.07-.05.11-.07c.36.2.94.26.94.26-.22.05-.78-.05-1.06-.19Zm-2.14,1.09s.1-.04.15-.06c.33.29,1.03.42,1.03.42-.25.03-.88-.14-1.13-.33-.02-.01-.03-.02-.05-.03Zm-2.15.64s.1-.02.15-.03c.31.29.86.5.86.5-.24-.01-.77-.25-1.01-.47Zm-2.16.26s.09,0,.13,0c.26.3.64.54.64.54-.19-.05-.54-.29-.77-.53Zm-2.21-.1s.09.01.13.02c.22.36.62.71.62.71-.2-.09-.57-.44-.76-.72Zm-.99-.64s.02-.03.03-.06c.11-.31.57-.82.81-.93,0,0-.61.57-.7,1.02-.05,0-.09-.02-.14-.03Zm-1.43.09c.06.02.12.04.18.06.18.43.56.86.56.86-.21-.12-.58-.58-.74-.92Zm-.8-1.11c.21-.28.83-.66,1.11-.7,0,0-.92.49-1.06.97-.07.22.97.21,1.47-.51.5-.72,1.07-.88,1.03-.92-.05-.06-2.17-.64-2.66,1.11,0,0-.03.25.12.05Zm13.87-3.89s-.04.87.25,1.17c.14.14.57-.61.26-1.27-.32-.66-.2-1.15-.25-1.14-.06.01-1.37,1.33-.29,2.41,0,0,.17.13.09-.06-.12-.27-.14-.88-.05-1.1Zm5.34-7.49s-.25.38-.89.66c-.65.28-.8,1.09-.62,1.07.4-.03.91-.68.91-.68-.08.21-.48.64-.73.76-.18.08.02.1.02.1,1.45-.1,1.34-1.87,1.3-1.91Zm-1.27-.16c1.4-.41.91-2.11.87-2.15-.04-.03-.16.43-.73.83-.57.41-.55,1.23-.37,1.18.38-.12.75-.86.75-.86-.03.22-.33.72-.55.9-.16.12.04.09.04.09Zm-.38-2.43c1.34-.44.82-2.07.78-2.1-.04-.03-.14.42-.68.83-.54.41-.5,1.21-.33,1.15.36-.12.7-.85.7-.85-.03.22-.3.71-.51.88-.15.12.05.09.05.09Zm-.71-2c1.3-.48.72-2.06.67-2.09-.04-.03-.12.42-.64.84-.51.43-.44,1.21-.27,1.14.35-.14.65-.87.65-.87-.02.21-.26.71-.46.89-.14.12.05.09.05.09Zm-.51-1.57c1.14-.69.31-2.08.26-2.1-.04-.02-.04.41-.45.91-.41.49-.2,1.22-.05,1.13.31-.19.46-.93.46-.93.02.21-.12.72-.28.92-.11.14.06.07.06.07Z"/>
        <path class="cls-5" d="m32.42,35.57c-1.23.88-2.55,1.52-3.9,1.95-.08-.01-.22.02-.37.11-.27.08-.55.15-.82.2,0-.03.02-.06.02-.06.04-1.71-2.04-1.76-2.1-1.72-.05.03.42.33.68,1.11.13.4.44.67.71.8-.16.03-.31.05-.47.07-.06,0-.15,0-.24.03-.26.03-.52.05-.78.06,0,0,0-.02,0-.03,0-.46-.69-1.09-.69-1.09.23.11.69.61.8.91.08.21.12-.02.12-.02.02-1.68-2.01-1.71-2.07-1.67-.05.03.42.32.67,1.08.15.47.55.74.84.83-.23,0-.46,0-.69,0-.02-.08-.24-.1-.5-.02-.28-.02-.55-.04-.82-.08.07-.44-.35-1.17-.35-1.17.19.17.47.75.5,1.07.01.22.11.02.11.02.48-1.56-1.4-2.15-1.47-2.13-.05.02.3.41.33,1.2.02.43.26.77.48.96-.58-.09-1.15-.22-1.71-.39.16-.41-.18-1.23-.18-1.23.16.19.36.81.34,1.12-.02.22.11.03.11.03.69-1.47-1.09-2.32-1.16-2.31-.05,0,.24.45.16,1.23-.05.45.17.84.38,1.05-.57-.19-1.12-.42-1.65-.69.19-.38-.02-1.2-.02-1.2.13.21.25.82.19,1.12-.04.21.1.05.1.05.85-1.33-.77-2.37-.83-2.36-.05,0,.18.46,0,1.2-.09.4.04.77.2,1-.52-.28-1.03-.61-1.51-.97,0,0,0,0,.01,0,.28-.32.2-1.19.2-1.19.09.22.11.84,0,1.12-.08.2.09.06.09.06,1.04-1.15-.35-2.42-.42-2.42-.05,0,.09.47-.2,1.16-.18.42-.07.86.08,1.1-.75-.6-1.45-1.29-2.06-2.07-.25-.32-.47-.64-.68-.97.3-.28.4-1.06.4-1.06.04.23-.07.82-.23,1.06-.11.17.08.08.08.08,1.22-.88.16-2.36.1-2.38-.05-.02,0,.47-.42,1.06-.17.25-.22.53-.21.77-.29-.52-.54-1.05-.75-1.59.37-.17.69-.92.69-.92-.02.23-.29.77-.51.95-.16.13.05.1.05.1,1.41-.5.81-2.22.76-2.26-.04-.03-.14.45-.7.9-.28.23-.41.56-.44.82-.19-.56-.34-1.13-.45-1.7.37-.14.76-.77.76-.77-.06.22-.4.69-.64.84-.17.1.03.1.03.1,1.43-.27,1.11-2.01,1.07-2.05-.04-.03-.2.41-.81.76-.26.15-.42.39-.51.61-.08-.55-.13-1.11-.13-1.67.37-.14.77-.72.77-.72-.07.22-.43.67-.67.81-.17.1.03.1.03.1,1.44-.2,1.2-1.96,1.16-2-.03-.04-.22.4-.84.72-.2.1-.34.25-.44.41.02-.43.06-.87.12-1.3,1.37.17,1.61-1.51,1.58-1.56-.02-.04-.31.31-.98.45-.17.03-.32.11-.45.21.09-.41.2-.82.32-1.22.02.03.07.04.07.04,1.36.24,1.67-1.41,1.64-1.46-.02-.04-.32.3-.97.4-.18.03-.33.1-.45.19.14-.37.31-.74.49-1.1,0,.03.07.06.07.06,1.28.38,1.74-1.17,1.73-1.22-.01-.04-.33.25-.97.28-.15,0-.29.05-.41.11.13-.23.27-.45.42-.67.96-.51.5-1.82.46-1.85-.04-.03-.12.38-.6.77-.48.39-.42,1.12-.27,1.06.33-.12.62-.8.62-.8-.02.2-.25.66-.44.82-.13.11.04.08.04.08.02,0,.04-.02.06-.03-.16.23-.3.47-.44.71-.28.2-.4.48-.3.51,0,0,0,0,.01,0-.24.46-.46.94-.64,1.42-.21.23-.28.48-.18.49h0c-.17.51-.31,1.03-.42,1.55-.22.24-.28.51-.18.53.02,0,.05,0,.08,0-.11.64-.17,1.29-.18,1.93-.02.09-.02.16,0,.21,0,.99.11,1.99.34,2.96-.11-.25-.37-.57-.77-.69-.69-.2-.97-.6-.99-.56-.03.05.08,1.87,1.57,1.79,0,0,.2-.05.01-.11-.28-.09-.73-.47-.84-.68,0,0,.61.6,1.02.58.04,0,.06-.04.06-.1.15.59.35,1.17.59,1.74-.18-.2-.5-.41-.89-.42-.72,0-1.09-.32-1.11-.27-.02.06.57,1.78,1.99,1.3,0,0,.18-.1-.02-.11-.29-.01-.83-.26-.99-.43,0,0,.75.41,1.14.29.01,0,.02-.01.03-.02.28.61.61,1.2.99,1.77-.2-.12-.46-.2-.75-.17-.73.08-1.15-.19-1.16-.14,0,.06.8,1.73,2.18,1.07,0,0,.17-.12-.03-.1-.29.02-.88-.16-1.06-.31,0,0,.79.32,1.17.15.05.06.09.13.14.19.24.31.49.6.75.88-.24-.04-.52-.02-.79.12-.66.35-1.15.24-1.14.3.01.06,1.4,1.34,2.45.2,0,0,.02-.03.03-.06.35.33.71.63,1.09.91-.17.02-.35.08-.51.19-.63.42-1.14.37-1.12.42.02.06,1.53,1.18,2.48-.03.37.23.75.44,1.14.63-.18.04-.36.12-.53.25-.61.5-1.14.49-1.11.54.03.06,1.72,1.08,2.57-.3,0,0,.02-.05.02-.08.36.14.73.26,1.1.37-.12.07-.23.15-.33.26-.52.59-1.04.67-1.01.72.04.05,1.86.78,2.48-.71.33.06.65.12.98.16-.06.07-.11.14-.16.22-.39.71-.9.91-.85.95.05.04,1.89.35,2.29-1.08.3,0,.6,0,.9-.02-.07.09-.12.19-.17.3-.29.77-.78,1.04-.73,1.08.06.04,2.03.09,2.17-1.5.35-.05.71-.12,1.06-.2-.05.1-.09.2-.12.31-.21.85-.69,1.2-.63,1.23.06.04,2.21-.17,2.1-1.92,1.33-.45,2.63-1.12,3.82-2.01,1.58-1.04,3.2-1.27,3.2-1.27l-.16-.48c-.94-.09-3.3,1.44-3.3,1.44Zm-18.95-15.69c.36,0,.88-.31.88-.31-.14.16-.61.4-.87.42-.04,0-.06,0-.08.02.02-.04.04-.09.06-.13Zm-.8,1.9c.37-.04.87-.42.87-.42-.12.18-.59.48-.85.53-.04,0-.05.01-.07.02.02-.05.03-.09.04-.13Zm-.5,2.05c.36-.1.78-.44.78-.44-.11.17-.53.47-.8.56,0-.04.01-.08.02-.12Zm3.5,11.31c-.27.13-.88.17-1.11.1,0,0,.71,0,1.06-.22.03.03.07.07.1.1-.01,0-.03.01-.05.02Zm.86,1.63s.58-.06.94-.26c.04.03.08.05.11.07-.28.14-.83.24-1.06.19Zm3.15.93c-.25.19-.88.36-1.13.33,0,0,.7-.14,1.03-.42.05.02.1.04.15.06-.01,0-.03.02-.05.03Zm1.19,1.08s.55-.21.86-.5c.05.01.1.02.15.03-.24.22-.77.46-1.01.47Zm2.4.32s.38-.24.64-.54c.05,0,.09,0,.13,0-.23.24-.58.48-.77.53Zm2.23.09s.4-.34.62-.71c.04,0,.09-.01.13-.02-.19.29-.56.64-.76.72Zm1.62-1.33c-.1-.45-.7-1.02-.7-1.02.24.12.7.62.81.93,0,.03.02.05.03.06-.05,0-.09.02-.14.03Zm.83.98s.38-.44.56-.86c.06-.02.12-.04.18-.06-.15.34-.52.79-.74.92Zm1.65-2.07c-.49-1.75-2.61-1.17-2.66-1.11-.04.05.53.2,1.03.92.5.72,1.53.73,1.47.51-.14-.47-1.06-.97-1.06-.97.28.05.9.42,1.11.7.15.2.12-.05.12-.05Zm-14.05-2.74c-.08.19.09.06.09.06,1.08-1.08-.23-2.4-.29-2.41-.05,0,.07.47-.25,1.14-.32.66.12,1.42.26,1.27.29-.3.25-1.17.25-1.17.08.22.07.83-.05,1.1Zm-3.98-6.68s.2-.02.02-.1c-.25-.12-.65-.55-.73-.76,0,0,.52.65.91.68.19.02.03-.8-.62-1.07-.65-.28-.86-.7-.89-.66-.04.05-.15,1.81,1.3,1.91Zm.01-2.16c-.22-.17-.52-.67-.55-.9,0,0,.37.74.75.86.18.05.2-.77-.37-1.18-.57-.41-.69-.87-.73-.83-.05.04-.53,1.74.87,2.15,0,0,.2.02.04-.09Zm.38-2.43c-.21-.17-.48-.67-.51-.88,0,0,.33.73.7.85.17.06.21-.74-.33-1.15-.54-.41-.64-.86-.68-.83-.05.04-.57,1.67.78,2.1,0,0,.2.03.05-.09Zm.71-1.99c-.2-.18-.44-.67-.46-.89,0,0,.3.73.65.87.17.06.24-.72-.27-1.14-.51-.43-.6-.87-.64-.84-.04.03-.62,1.61.67,2.09,0,0,.19.04.05-.09Zm.53-1.56c-.16-.2-.3-.71-.28-.92,0,0,.15.74.46.93.15.09.36-.64-.05-1.13-.41-.49-.41-.93-.45-.91-.05.02-.88,1.41.26,2.1,0,0,.17.07.06-.07Z"/>
        <g class="cls-15">
          <path class="cls-9" d="m32.59,31.63c-.82.11-1.48.66-1.9,1.12-1.07-.42-3.18-1.11-5.79-1.11s-4.77.69-5.84,1.12c-.43-.47-1.09-1.03-1.92-1.14-.6-.08-1.18.09-1.72.51-.66.51-1.03,1.13-1.09,1.82,0,.07,0,.13,0,.19,0,.77.38,1.44.7,1.87-.09.13-.14.22-.17.26-.12.19-1.56,2.44-3.02,6.28-1.37,3.61-3.01,9.35-3.01,16.18,0,.03,0,.09,0,.2,0,1.07.21,5.88,3.79,9.6,2.79,2.91,6.91,4.38,12.24,4.38s9.45-1.47,12.25-4.38c3.63-3.76,3.83-8.64,3.83-9.63,0-.09,0-.15,0-.17,0-6.83-1.64-12.57-3.01-16.18-1.46-3.84-2.9-6.1-3.02-6.28-.02-.04-.09-.15-.19-.3.31-.43.67-1.09.67-1.84,0-.07,0-.14,0-.2-.06-.69-.43-1.3-1.08-1.81-.54-.42-1.12-.59-1.72-.51"/>
          <g>
            <path class="cls-7" d="m32.59,31.63c-.82.11-1.48.66-1.9,1.12-1.07-.42-3.18-1.11-5.79-1.11s-4.77.69-5.84,1.12c-.43-.47-1.09-1.03-1.92-1.14-.6-.08-1.18.09-1.72.51-.66.51-1.03,1.13-1.09,1.82,0,.07,0,.13,0,.19,0,.77.38,1.44.7,1.87-.09.13-.14.22-.17.26-.12.19-1.56,2.44-3.02,6.28-1.37,3.61-3.01,9.35-3.01,16.18,0,.03,0,.09,0,.2,0,1.07.21,5.88,3.79,9.6,2.79,2.91,6.91,4.38,12.24,4.38s9.45-1.47,12.25-4.38c3.63-3.76,3.83-8.64,3.83-9.63,0-.09,0-.15,0-.17,0-6.83-1.64-12.57-3.01-16.18-1.46-3.84-2.9-6.1-3.02-6.28-.02-.04-.09-.15-.19-.3.31-.43.67-1.09.67-1.84,0-.07,0-.14,0-.2-.06-.69-.43-1.3-1.08-1.81-.54-.42-1.12-.59-1.72-.51m-1.3,2.13c.22-.28.79-.94,1.45-1.03.3-.04.6.06.9.29.41.32.62.65.66,1.03.06.68-.5,1.37-.67,1.56l-.31.34.29.37c.25.32.37.53.37.53h0s0,.03,0,.03c.01.02,1.48,2.3,2.93,6.12,1.33,3.52,2.92,9.12,2.92,15.77h.55c-.27,0-.55.02-.55.02,0,0,0,.03,0,.09,0,.69-.13,5.42-3.52,8.92-2.59,2.68-6.44,4.03-11.45,4.03s-8.85-1.36-11.43-4.03c-3.63-3.77-3.49-8.96-3.48-9.01h0v-.02c0-6.66,1.59-12.25,2.92-15.77,1.45-3.82,2.92-6.1,2.93-6.12h0s.01-.03.01-.03c0,0,.11-.2.35-.5l.28-.37-.32-.34c-.18-.19-.76-.88-.7-1.58.03-.38.25-.72.66-1.04.3-.23.59-.33.9-.29.66.09,1.24.76,1.46,1.04l.27.35.4-.18c.8-.36,2.98-1.19,5.77-1.19s4.93.82,5.73,1.17l.4.17.26-.34Z"/>
            <path class="cls-7" d="m31.56,35.68c-1.76-1.28-4.14-1.99-6.7-1.99s-4.95.71-6.71,1.99c-1.84,1.35-2.86,3.23-2.86,5.31s1.02,3.94,2.87,5.25c1.74,1.24,4.12,1.93,6.7,1.93s4.95-.68,6.7-1.93c1.85-1.31,2.86-3.18,2.86-5.25s-1.02-3.96-2.86-5.31Zm-.58,9.75c-1.58,1.12-3.75,1.74-6.12,1.74s-4.55-.62-6.12-1.74c-1.6-1.14-2.44-2.67-2.44-4.44s.87-3.35,2.45-4.5c1.59-1.16,3.76-1.8,6.12-1.8s4.53.64,6.11,1.8c1.58,1.15,2.45,2.75,2.45,4.5s-.85,3.3-2.44,4.44Z"/>
            <path class="cls-7" d="m16.69,35.43c-.09,0-.18-.05-.24-.13,0,0-.1-.13-.19-.3-.09-.18-.2-.41-.2-.68,0-.18.06-.39.23-.54.16-.15.37-.2.54-.2.27,0,.51.1.68.18.18.09.3.17.31.18.08.06.13.15.14.24,0,.1-.03.2-.1.26l-.92.9c-.06.06-.15.09-.23.09,0,0-.02,0-.03,0"/>
            <path class="cls-7" d="m33,35.47s-.02,0-.03,0c-.09,0-.18-.04-.24-.1l-.96-.95c-.07-.07-.11-.17-.1-.28,0-.1.06-.2.15-.26,0,0,.14-.09.32-.18.19-.09.43-.19.72-.19.18,0,.4.05.57.21.18.16.24.39.24.57,0,.29-.11.53-.21.72-.1.18-.19.31-.2.32-.06.08-.15.13-.25.14"/>
            <path class="cls-7" d="m27.4,44.67c-.04-.09-.14-.13-.23-.09,0,0-.02,0-.06.02-.13.05-.43.14-.76.14-.3,0-.6-.07-.83-.31-.22-.22-.4-.61-.41-1.3.42-.06.73-.32.73-.63,0-.36-.41-.64-.91-.64s-.91.29-.91.64c0,.31.31.57.73.63-.02.68-.19,1.08-.41,1.3-.23.23-.53.31-.83.31-.22,0-.43-.04-.58-.08-.08-.02-.14-.04-.18-.06-.04-.02-.06-.02-.06-.02-.09-.04-.19,0-.23.09-.04.09,0,.19.09.23.01,0,.44.19.96.19h0c.35,0,.76-.09,1.07-.41.14-.14.25-.32.34-.55.09.23.2.41.34.55.32.32.72.41,1.08.41h0c.52,0,.95-.19.96-.19.09-.04.13-.14.09-.23Z"/>
            <path class="cls-7" d="m20.96,40.51c0,.37-.3.67-.67.67s-.66-.3-.66-.67.3-.67.66-.67.67.3.67.67"/>
            <path class="cls-7" d="m18.76,38.62v.69h2.93c-.15-.61-1.72-.79-2.93-.69"/>
            <path class="cls-7" d="m31.02,38.62v.69h-2.92c.15-.61,1.72-.79,2.92-.69"/>
            <path class="cls-7" d="m28.82,40.51c0,.37.3.67.66.67s.67-.3.67-.67-.3-.67-.67-.67-.66.3-.66.67"/>
          </g>
        </g>
        <g>
          <g class="cls-13">
            <path class="cls-11" d="m13.89,25.63c0,.78-.3,1.36-.89,1.74-.45.29-.99.43-1.63.43-.74,0-1.32-.11-1.75-.33-.58-.3-1.01-.85-1.27-1.64l1.49-.46c.17.45.4.75.68.91.2.11.48.16.84.16.26,0,.48-.06.63-.19.16-.12.24-.3.24-.52s-.13-.4-.4-.54c-.18-.09-.5-.19-.96-.3-.8-.19-1.34-.37-1.63-.56-.5-.33-.75-.84-.75-1.53,0-.59.24-1.06.71-1.43.48-.37,1.09-.55,1.86-.55,1.38,0,2.32.54,2.81,1.62l-1.43.52c-.17-.3-.37-.51-.61-.63-.2-.1-.48-.16-.84-.16-.31,0-.55.07-.72.21-.14.12-.21.26-.21.41,0,.19.1.33.31.44.13.07.38.15.75.24.73.18,1.14.28,1.22.31.48.15.84.35,1.08.6.31.31.47.73.47,1.24Z"/>
            <path class="cls-11" d="m17.9,27.72h-3.38v-1.32h.92v-4.16h-.91v-1.32h3.37v1.32h-.92v4.16h.92v1.32Z"/>
            <path class="cls-11" d="m23.73,27.72h-4.64v-6.79h1.55v5.4h3.09v1.39Z"/>
            <path class="cls-11" d="m29.32,20.93l-2.36,6.79h-1.81l-2.27-6.79h1.65l1.54,4.85,1.57-4.85h1.67Z"/>
            <path class="cls-11" d="m34.62,27.72h-4.81v-6.79h4.81v1.39h-3.26v1.22h2.86v1.39h-2.86v1.41h3.26v1.39Z"/>
            <path class="cls-11" d="m41.47,27.72h-1.71l-.83-1.9c-.19-.43-.57-.65-1.14-.65h-.61v2.56h-1.55v-6.79h3.21c.62,0,1.13.16,1.53.47.47.37.71.9.71,1.58,0,.86-.4,1.47-1.2,1.81.27.18.5.46.67.84l.92,2.09Zm-1.99-4.67c0-.2-.06-.36-.17-.49-.15-.16-.37-.25-.66-.25h-1.47v1.54h1.47c.29,0,.51-.09.66-.28.12-.14.17-.32.17-.52Z"/>
            <path class="cls-11" d="m14.15,25.9c0,.78-.3,1.36-.89,1.74-.45.29-.99.43-1.63.43-.74,0-1.32-.11-1.75-.33-.58-.3-1.01-.85-1.27-1.64l1.49-.46c.17.45.4.75.68.91.2.11.48.16.84.16.26,0,.48-.06.63-.19.16-.12.24-.3.24-.52s-.13-.4-.4-.54c-.18-.09-.5-.19-.96-.3-.8-.19-1.34-.37-1.63-.56-.5-.33-.75-.84-.75-1.53,0-.59.24-1.06.71-1.43.48-.37,1.09-.55,1.86-.55,1.38,0,2.32.54,2.81,1.62l-1.43.52c-.17-.3-.37-.51-.61-.63-.2-.1-.48-.16-.84-.16-.31,0-.55.07-.72.21-.14.12-.21.26-.21.41,0,.19.1.33.31.44.13.07.38.15.75.24.73.18,1.14.28,1.22.31.48.15.84.35,1.08.6.31.31.47.73.47,1.24Z"/>
            <path class="cls-11" d="m18.16,27.98h-3.38v-1.32h.92v-4.16h-.91v-1.32h3.37v1.32h-.92v4.16h.92v1.32Z"/>
            <path class="cls-11" d="m24,27.98h-4.64v-6.79h1.55v5.4h3.09v1.39Z"/>
            <path class="cls-11" d="m29.59,21.19l-2.36,6.79h-1.81l-2.27-6.79h1.65l1.54,4.85,1.57-4.85h1.67Z"/>
            <path class="cls-11" d="m34.88,27.98h-4.81v-6.79h4.81v1.39h-3.26v1.22h2.86v1.39h-2.86v1.41h3.26v1.39Z"/>
            <path class="cls-11" d="m41.73,27.98h-1.71l-.83-1.9c-.19-.43-.57-.65-1.14-.65h-.61v2.56h-1.55v-6.79h3.21c.62,0,1.13.16,1.53.47.47.37.71.9.71,1.58,0,.86-.4,1.47-1.2,1.81.27.18.5.46.67.84l.92,2.09Zm-1.99-4.67c0-.2-.06-.36-.17-.49-.15-.16-.37-.25-.66-.25h-1.47v1.54h1.47c.29,0,.51-.09.66-.28.12-.14.17-.32.17-.52Z"/>
          </g>
          <g>
            <g>
              <path class="cls-4" d="m13.5,25.24c0,.78-.3,1.36-.89,1.74-.45.29-.99.43-1.63.43-.74,0-1.32-.11-1.75-.33-.58-.3-1.01-.85-1.27-1.64l1.49-.46c.17.45.4.75.68.91.2.11.48.16.84.16.26,0,.48-.06.63-.19.16-.12.24-.3.24-.52s-.13-.4-.4-.54c-.18-.09-.5-.19-.96-.3-.8-.19-1.34-.37-1.63-.56-.5-.33-.75-.84-.75-1.53,0-.59.24-1.06.71-1.43.48-.37,1.09-.55,1.86-.55,1.38,0,2.32.54,2.81,1.62l-1.43.52c-.17-.3-.37-.51-.61-.63-.2-.1-.48-.16-.84-.16-.31,0-.55.07-.72.21-.14.12-.21.26-.21.41,0,.19.1.33.31.44.13.07.38.15.75.24.73.18,1.14.28,1.22.31.48.15.84.35,1.08.6.31.31.47.73.47,1.24Z"/>
              <path class="cls-4" d="m17.5,27.33h-3.38v-1.32h.92v-4.16h-.91v-1.32h3.37v1.32h-.92v4.16h.92v1.32Z"/>
              <path class="cls-4" d="m23.34,27.33h-4.64v-6.79h1.55v5.4h3.09v1.39Z"/>
              <path class="cls-4" d="m28.93,20.53l-2.36,6.79h-1.81l-2.27-6.79h1.65l1.54,4.85,1.57-4.85h1.67Z"/>
              <path class="cls-4" d="m34.23,27.33h-4.81v-6.79h4.81v1.39h-3.26v1.22h2.86v1.39h-2.86v1.41h3.26v1.39Z"/>
              <path class="cls-4" d="m41.08,27.33h-1.71l-.83-1.9c-.19-.43-.57-.65-1.14-.65h-.61v2.56h-1.55v-6.79h3.21c.62,0,1.13.16,1.53.47.47.37.71.9.71,1.58,0,.86-.4,1.47-1.2,1.81.27.18.5.46.67.84l.92,2.09Zm-1.99-4.67c0-.2-.06-.36-.17-.49-.15-.16-.37-.25-.66-.25h-1.47v1.54h1.47c.29,0,.51-.09.66-.28.12-.14.17-.32.17-.52Z"/>
            </g>
            <g>
              <path class="cls-12" d="m13.76,25.5c0,.78-.3,1.36-.89,1.74-.45.29-.99.43-1.63.43-.74,0-1.32-.11-1.75-.33-.58-.3-1.01-.85-1.27-1.64l1.49-.46c.17.45.4.75.68.91.2.11.48.16.84.16.26,0,.48-.06.63-.19.16-.12.24-.3.24-.52s-.13-.4-.4-.54c-.18-.09-.5-.19-.96-.3-.8-.19-1.34-.37-1.63-.56-.5-.33-.75-.84-.75-1.53,0-.59.24-1.06.71-1.43.48-.37,1.09-.55,1.86-.55,1.38,0,2.32.54,2.81,1.62l-1.43.52c-.17-.3-.37-.51-.61-.63-.2-.1-.48-.16-.84-.16-.31,0-.55.07-.72.21-.14.12-.21.26-.21.41,0,.19.1.33.31.44.13.07.38.15.75.24.73.18,1.14.28,1.22.31.48.15.84.35,1.08.6.31.31.47.73.47,1.24Z"/>
              <path class="cls-12" d="m17.77,27.59h-3.38v-1.32h.92v-4.16h-.91v-1.32h3.37v1.32h-.92v4.16h.92v1.32Z"/>
              <path class="cls-12" d="m23.6,27.59h-4.64v-6.79h1.55v5.4h3.09v1.39Z"/>
              <path class="cls-12" d="m29.19,20.79l-2.36,6.79h-1.81l-2.27-6.79h1.65l1.54,4.85,1.57-4.85h1.67Z"/>
              <path class="cls-12" d="m34.49,27.59h-4.81v-6.79h4.81v1.39h-3.26v1.22h2.86v1.39h-2.86v1.41h3.26v1.39Z"/>
              <path class="cls-12" d="m41.34,27.59h-1.71l-.83-1.9c-.19-.43-.57-.65-1.14-.65h-.61v2.56h-1.55v-6.79h3.21c.62,0,1.13.16,1.53.47.47.37.71.9.71,1.58,0,.86-.4,1.47-1.2,1.81.27.18.5.46.67.84l.92,2.09Zm-1.99-4.67c0-.2-.06-.36-.17-.49-.15-.16-.37-.25-.66-.25h-1.47v1.54h1.47c.29,0,.51-.09.66-.28.12-.14.17-.32.17-.52Z"/>
            </g>
          </g>
        </g>
      </g>
    </g>
  </g>
</svg>