<svg width="24" height="25" viewBox="0 0 24 25" fill="none" xmlns="http://www.w3.org/2000/svg">
<path d="M14 15.5C14.2833 15.5 14.5292 15.3958 14.7375 15.1875C14.9458 14.9792 15.05 14.7333 15.05 14.45C15.05 14.1667 14.9458 13.9208 14.7375 13.7125C14.5292 13.5042 14.2833 13.4 14 13.4C13.7167 13.4 13.4708 13.5042 13.2625 13.7125C13.0542 13.9208 12.95 14.1667 12.95 14.45C12.95 14.7333 13.0542 14.9792 13.2625 15.1875C13.4708 15.3958 13.7167 15.5 14 15.5ZM14 12.3C14.1833 12.3 14.3542 12.2333 14.5125 12.1C14.6708 11.9667 14.7667 11.7917 14.8 11.575C14.8333 11.375 14.9042 11.1917 15.0125 11.025C15.1208 10.8583 15.3167 10.6333 15.6 10.35C16.1 9.85 16.4333 9.44583 16.6 9.1375C16.7667 8.82917 16.85 8.46667 16.85 8.05C16.85 7.3 16.5875 6.6875 16.0625 6.2125C15.5375 5.7375 14.85 5.5 14 5.5C13.45 5.5 12.95 5.625 12.5 5.875C12.05 6.125 11.6917 6.48333 11.425 6.95C11.325 7.11667 11.3167 7.29167 11.4 7.475C11.4833 7.65833 11.625 7.79167 11.825 7.875C12.0083 7.95833 12.1875 7.96667 12.3625 7.9C12.5375 7.83333 12.6833 7.71667 12.8 7.55C12.95 7.33333 13.125 7.17083 13.325 7.0625C13.525 6.95417 13.75 6.9 14 6.9C14.4 6.9 14.725 7.0125 14.975 7.2375C15.225 7.4625 15.35 7.76667 15.35 8.15C15.35 8.38333 15.2833 8.60417 15.15 8.8125C15.0167 9.02083 14.7833 9.28333 14.45 9.6C13.9667 10.0167 13.6583 10.3375 13.525 10.5625C13.3917 10.7875 13.3083 11.1167 13.275 11.55C13.2583 11.75 13.3208 11.925 13.4625 12.075C13.6042 12.225 13.7833 12.3 14 12.3ZM8 18.5C7.45 18.5 6.97917 18.3042 6.5875 17.9125C6.19583 17.5208 6 17.05 6 16.5V4.5C6 3.95 6.19583 3.47917 6.5875 3.0875C6.97917 2.69583 7.45 2.5 8 2.5H20C20.55 2.5 21.0208 2.69583 21.4125 3.0875C21.8042 3.47917 22 3.95 22 4.5V16.5C22 17.05 21.8042 17.5208 21.4125 17.9125C21.0208 18.3042 20.55 18.5 20 18.5H8ZM8 16.5H20V4.5H8V16.5ZM4 22.5C3.45 22.5 2.97917 22.3042 2.5875 21.9125C2.19583 21.5208 2 21.05 2 20.5V7.5C2 7.21667 2.09583 6.97917 2.2875 6.7875C2.47917 6.59583 2.71667 6.5 3 6.5C3.28333 6.5 3.52083 6.59583 3.7125 6.7875C3.90417 6.97917 4 7.21667 4 7.5V20.5H17C17.2833 20.5 17.5208 20.5958 17.7125 20.7875C17.9042 20.9792 18 21.2167 18 21.5C18 21.7833 17.9042 22.0208 17.7125 22.2125C17.5208 22.4042 17.2833 22.5 17 22.5H4Z" fill="#222124" fill-opacity="0.85"/>
</svg>
