<svg width="24" height="25" viewBox="0 0 24 25" fill="none" xmlns="http://www.w3.org/2000/svg">
<path d="M15.35 20.5L13.4 22.425C13.0167 22.8083 12.55 23 12 23C11.45 23 10.9833 22.8083 10.6 22.425L8.65 20.5H6C5.45 20.5 4.97917 20.3042 4.5875 19.9125C4.19583 19.5208 4 19.05 4 18.5V15.85L2.075 13.9C1.69167 13.5167 1.5 13.05 1.5 12.5C1.5 11.95 1.69167 11.4833 2.075 11.1L4 9.15V6.5C4 5.95 4.19583 5.47917 4.5875 5.0875C4.97917 4.69583 5.45 4.5 6 4.5H8.65L10.6 2.575C10.9833 2.19167 11.45 2 12 2C12.55 2 13.0167 2.19167 13.4 2.575L15.35 4.5H18C18.55 4.5 19.0208 4.69583 19.4125 5.0875C19.8042 5.47917 20 5.95 20 6.5V9.15L21.925 11.1C22.3083 11.4833 22.5 11.95 22.5 12.5C22.5 13.05 22.3083 13.5167 21.925 13.9L20 15.85V18.5C20 19.05 19.8042 19.5208 19.4125 19.9125C19.0208 20.3042 18.55 20.5 18 20.5H15.35ZM12 21L14.5 18.5H18V15L20.5 12.5L18 10V6.5H14.5L12 4L9.5 6.5H6V10L3.5 12.5L6 15V18.5H9.5L12 21ZM12 14.975L13.9 16.125C14.0833 16.2417 14.2667 16.2375 14.45 16.1125C14.6333 15.9875 14.7 15.8167 14.65 15.6L14.15 13.425L15.85 11.95C16.0167 11.8 16.0667 11.6208 16 11.4125C15.9333 11.2042 15.7833 11.0917 15.55 11.075L13.325 10.9L12.45 8.85C12.3667 8.65 12.2167 8.55 12 8.55C11.7833 8.55 11.6333 8.65 11.55 8.85L10.675 10.9L8.45 11.075C8.21667 11.0917 8.06667 11.2042 8 11.4125C7.93333 11.6208 7.98333 11.8 8.15 11.95L9.85 13.425L9.35 15.6C9.3 15.8167 9.36667 15.9875 9.55 16.1125C9.73333 16.2375 9.91667 16.2417 10.1 16.125L12 14.975Z" fill="#222124"/>
</svg>
