<svg width="33" height="23" viewBox="0 0 33 23" fill="none" xmlns="http://www.w3.org/2000/svg">
<path d="M7.64078 18.0229C14.5313 20.7119 20.3952 21.2357 27.0401 17.0501C26.9914 17.1232 25.677 19.0705 22.2204 20.0685C22.9506 21.0666 23.9487 22.2106 23.9487 22.2106C26.1638 22.2106 28.3303 21.5777 30.2046 20.3606C31.6651 19.3869 32.4927 17.7073 32.3223 15.9547C32.0302 12.9606 31.3242 10.0395 30.2289 7.24026C28.8414 3.58897 25.5066 1.05736 21.6362 0.692201C21.2954 0.667848 21.052 0.667848 20.9059 0.667848L20.5165 1.05729C24.9711 2.32309 27.1862 4.29479 27.2349 4.36785C20.3947 0.911238 12.3132 0.862603 5.42432 4.2218C5.42432 4.2218 7.61512 2.05535 12.4592 0.911238L12.1671 0.619141C11.6559 0.619141 11.169 0.667848 10.6579 0.740836C7.07956 1.34938 4.08553 3.80793 2.79537 7.19148C1.67561 10.1125 0.945367 13.1796 0.677623 16.2954C0.531574 17.9507 1.31052 19.5816 2.67367 20.531C4.47496 21.7237 6.61706 22.3566 8.78351 22.3566C8.78351 22.3566 9.65981 21.2125 10.5362 20.1902C7.24996 19.2165 5.91117 17.2691 5.88682 17.1961L6.50527 17.5119C6.87498 17.7008 7.25401 17.8719 7.64078 18.0229ZM11.4612 15.906C9.87891 15.8573 8.63746 14.5185 8.68617 12.9119C8.73488 11.4027 9.95198 10.1856 11.4612 10.1369C13.0434 10.1856 14.2849 11.5244 14.2362 13.131C14.1631 14.6403 12.9704 15.8574 11.4612 15.906ZM21.3927 15.906C19.8105 15.8573 18.569 14.5185 18.6177 12.9119C18.6664 11.4027 19.8835 10.1856 21.3927 10.1369C22.975 10.1856 24.2164 11.5244 24.1677 13.131C24.1191 14.6403 22.9019 15.8574 21.3927 15.906Z" fill="white"/>
</svg>
