<svg width="12" height="12" viewBox="0 0 12 12" fill="none" xmlns="http://www.w3.org/2000/svg">
<g clip-path="url(#clip0_216_517)">
<path d="M6.395 10.5L1.5 5.60498V6.60498C1.5 6.86998 1.605 7.12498 1.795 7.30998L5.69 11.205C6.08 11.595 6.715 11.595 7.105 11.205L10.21 8.09998C10.6 7.70998 10.6 7.07498 10.21 6.68498L6.395 10.5Z" fill="white"/>
<path d="M5.69 8.705C6.08 9.095 6.715 9.095 7.105 8.705L10.21 5.6C10.6 5.21 10.6 4.575 10.21 4.185L6.315 0.29C6.12507 0.104651 5.87038 0.000622663 5.605 0L2.5 0C1.95 0 1.5 0.45 1.5 1V4.105C1.5 4.37 1.605 4.625 1.795 4.81L5.69 8.705ZM3.625 1.5C3.79076 1.5 3.94973 1.56585 4.06694 1.68306C4.18415 1.80027 4.25 1.95924 4.25 2.125C4.25 2.29076 4.18415 2.44973 4.06694 2.56694C3.94973 2.68415 3.79076 2.75 3.625 2.75C3.45924 2.75 3.30027 2.68415 3.18306 2.56694C3.06585 2.44973 3 2.29076 3 2.125C3 1.95924 3.06585 1.80027 3.18306 1.68306C3.30027 1.56585 3.45924 1.5 3.625 1.5Z" fill="white"/>
</g>
<defs>
<clipPath id="clip0_216_517">
<rect width="12" height="12" fill="white"/>
</clipPath>
</defs>
</svg>
