<svg width="25" height="25" viewBox="0 0 25 25" fill="none" xmlns="http://www.w3.org/2000/svg">
<g clip-path="url(#clip0_216_673)">
<path d="M5.21132 11.9354C5.21134 11.7954 5.23902 11.6568 5.29275 11.5276C5.34648 11.3984 5.42522 11.281 5.52443 11.1823C5.62364 11.0835 5.74138 11.0054 5.87089 10.9523C6.0004 10.8992 6.13912 10.8722 6.27909 10.8728L8.04933 10.8786C8.33159 10.8786 8.60229 10.9907 8.80187 11.1903C9.00146 11.3899 9.11359 11.6606 9.11359 11.9428V18.6371C9.31297 18.578 9.56813 18.515 9.84892 18.4488C10.0434 18.4031 10.2168 18.2929 10.3409 18.1363C10.465 17.9796 10.5326 17.7857 10.5326 17.5858V9.28272C10.5326 9.00044 10.6447 8.72973 10.8443 8.53011C11.0439 8.33049 11.3146 8.21831 11.5969 8.21826H13.3725C13.6548 8.21831 13.9254 8.33049 14.125 8.53011C14.3246 8.72973 14.4367 9.00044 14.4367 9.28272V16.9893C14.4367 16.9893 14.8809 16.8096 15.3134 16.6269C15.4741 16.559 15.6112 16.4452 15.7076 16.2998C15.8041 16.1544 15.8556 15.9838 15.8557 15.8094V6.62198C15.8557 6.33976 15.9678 6.06909 16.1674 5.86951C16.3669 5.66993 16.6376 5.55778 16.9198 5.55772H18.6935C18.9756 5.558 19.2461 5.67025 19.4454 5.8698C19.6448 6.06936 19.7568 6.3399 19.7568 6.62198V14.1875C21.2946 13.073 22.853 11.7325 24.0898 10.1207C24.2693 9.88678 24.388 9.61204 24.4354 9.32104C24.4829 9.03003 24.4576 8.73181 24.3617 8.45297C23.7892 6.80589 22.8792 5.29646 21.6898 4.02127C20.5005 2.74607 19.0581 1.73321 17.4548 1.04747C15.8516 0.36174 14.1228 0.0182456 12.3792 0.038971C10.6356 0.0596963 8.91549 0.444184 7.32899 1.16783C5.74249 1.89148 4.32453 2.93835 3.16583 4.24145C2.00714 5.54455 1.13324 7.07519 0.600047 8.73541C0.066855 10.3956 -0.113884 12.1489 0.0693947 13.883C0.252673 15.6171 0.795935 17.2938 1.66441 18.8059C1.81572 19.0667 2.03833 19.279 2.30609 19.4177C2.57385 19.5564 2.87563 19.6158 3.17598 19.5889C3.51152 19.5594 3.92929 19.5176 4.42598 19.4594C4.64216 19.4348 4.84173 19.3315 4.9867 19.1693C5.13167 19.0071 5.21191 18.7972 5.21214 18.5796V11.9354" fill="white"/>
<path d="M5.17346 22.6712C7.04313 24.0313 9.25263 24.8478 11.5575 25.0301C13.8624 25.2125 16.1728 24.7537 18.2331 23.7045C20.2934 22.6553 22.0233 21.0565 23.2314 19.0852C24.4395 17.1138 25.0786 14.8467 25.0782 12.5346C25.0782 12.2454 25.0648 11.9606 25.0456 11.6768C20.4664 18.5063 12.0115 21.6991 5.17346 22.6712Z" fill="white"/>
</g>
<defs>
<clipPath id="clip0_216_673">
<rect width="25" height="25" fill="white"/>
</clipPath>
</defs>
</svg>
