<svg width="16" height="17" viewBox="0 0 16 17" fill="none" xmlns="http://www.w3.org/2000/svg">
<path d="M7.99999 10.4666C7.9111 10.4666 7.82777 10.4528 7.74999 10.425C7.67221 10.3972 7.59999 10.35 7.53333 10.2833L4.46666 7.21664C4.34444 7.09442 4.28333 6.93886 4.28333 6.74998C4.28333 6.56109 4.34444 6.40553 4.46666 6.28331C4.58888 6.16109 4.74444 6.09998 4.93333 6.09998C5.12221 6.09998 5.27777 6.16109 5.39999 6.28331L7.99999 8.88331L10.6 6.28331C10.7222 6.16109 10.8778 6.09998 11.0667 6.09998C11.2555 6.09998 11.4111 6.16109 11.5333 6.28331C11.6555 6.40553 11.7167 6.56109 11.7167 6.74998C11.7167 6.93886 11.6555 7.09442 11.5333 7.21664L8.46666 10.2833C8.39999 10.35 8.32777 10.3972 8.24999 10.425C8.17221 10.4528 8.08888 10.4666 7.99999 10.4666Z" fill="#242424"/>
</svg>
