<svg width="25" height="25" viewBox="0 0 25 25" fill="none" xmlns="http://www.w3.org/2000/svg">
<g clip-path="url(#clip0_216_644)">
<path d="M12.9468 24.985C14.8585 24.7134 16.5344 22.7181 17.589 19.7713C16.0645 19.4299 14.5088 19.2467 12.9468 19.2249V24.985Z" fill="white"/>
<path d="M16.0012 24.5169C16.1143 24.4842 16.2268 24.4512 16.3385 24.415C16.4328 24.3847 16.5257 24.352 16.6186 24.3195C16.7286 24.2815 16.8381 24.2425 16.9472 24.201C17.0401 24.1657 17.1322 24.1281 17.2245 24.0906C17.3309 24.0459 17.4372 24.0014 17.5423 23.9567C17.6342 23.9163 17.7254 23.874 17.8166 23.8314C17.9198 23.7828 18.0225 23.7333 18.1244 23.6818C18.2138 23.6362 18.3031 23.5897 18.3925 23.5419C18.4927 23.4883 18.5921 23.4335 18.691 23.3772C18.7804 23.3266 18.8666 23.2758 18.9536 23.2234C19.0505 23.1639 19.1469 23.1043 19.2427 23.0447C19.3284 22.9902 19.414 22.9348 19.4984 22.8776C19.5926 22.8141 19.6856 22.748 19.7781 22.6819C19.8612 22.6224 19.9439 22.563 20.025 22.5033C20.1145 22.4343 20.2061 22.363 20.2958 22.2914C20.3754 22.2279 20.4548 22.1649 20.5331 22.0997C20.6224 22.0255 20.7079 21.9487 20.7945 21.8719C20.8704 21.8045 20.9468 21.7377 21.0209 21.6686C21.1062 21.589 21.1894 21.5065 21.2725 21.4247C21.3445 21.3536 21.4173 21.2835 21.4878 21.2107C21.5009 21.1971 21.5133 21.1825 21.5269 21.1686C20.5523 20.6653 19.5259 20.2702 18.4654 19.9905C17.9139 21.7493 16.9324 23.3432 15.6099 24.6273C15.6461 24.6179 15.6823 24.6103 15.7185 24.6009C15.8141 24.5741 15.9079 24.5446 16.0012 24.5169V24.5169Z" fill="white"/>
<path d="M25 12.957H19.6428C19.6225 15.0488 19.3191 17.1281 18.7407 19.1384C19.9201 19.4535 21.0583 19.9064 22.1316 20.4878C23.8939 18.3637 24.9027 15.7155 25 12.957V12.957Z" fill="white"/>
<path d="M12.9468 12.0635H18.7492C18.7265 10.0458 18.4305 8.04042 17.8696 6.10205C16.2539 6.47053 14.6037 6.66731 12.9468 6.68912V12.0635Z" fill="white"/>
<path d="M12.9468 0.0354004V5.79553C14.5088 5.77349 16.0645 5.59046 17.589 5.24903C16.5344 2.30232 14.8585 0.307012 12.9468 0.0354004V0.0354004Z" fill="white"/>
<path d="M12.9468 18.3314C14.6037 18.3535 16.2539 18.5503 17.8696 18.9187C18.4305 16.9804 18.7265 14.9748 18.7492 12.957H12.9468V18.3314Z" fill="white"/>
<path d="M22.1316 4.53247C21.0583 5.11387 19.9201 5.56678 18.7407 5.8818C19.3191 7.89216 19.6225 9.97147 19.6428 12.0632H25C24.9025 9.30498 23.8937 6.65671 22.1316 4.53247V4.53247Z" fill="white"/>
<path d="M21.5279 3.85535C21.5148 3.84205 21.5024 3.82765 21.4895 3.8139C21.4188 3.74104 21.3455 3.67079 21.2735 3.59989C21.1906 3.51807 21.1079 3.43539 21.0224 3.35598C20.9485 3.28704 20.8719 3.22181 20.796 3.15309C20.7094 3.0763 20.6227 2.99885 20.5337 2.92467C20.4565 2.85944 20.3773 2.79705 20.2988 2.73444C20.2093 2.66201 20.1177 2.59001 20.0256 2.52086C19.9449 2.45999 19.8631 2.40109 19.7809 2.34218C19.6875 2.27499 19.5937 2.20801 19.4986 2.14409C19.415 2.08781 19.3301 2.03283 19.2453 1.97894C19.1486 1.91677 19.0522 1.8559 18.9538 1.797C18.8676 1.74529 18.7806 1.69424 18.6933 1.64472C18.5934 1.58756 18.4933 1.53215 18.3923 1.47804C18.3028 1.43332 18.2136 1.38467 18.1241 1.33995C18.0214 1.28802 17.9178 1.23806 17.8115 1.18898C17.7221 1.14644 17.6313 1.10499 17.5392 1.06463C17.4334 1.01772 17.3265 0.975398 17.2199 0.930675C17.1278 0.893151 17.0362 0.856063 16.9432 0.820721C16.8348 0.77927 16.7248 0.740437 16.6149 0.702477C16.522 0.669753 16.429 0.637247 16.3348 0.606704C16.2231 0.570489 16.1114 0.537547 15.9966 0.504386C15.9037 0.477116 15.8103 0.449409 15.7163 0.424539C15.6803 0.414722 15.6436 0.407086 15.6074 0.397705C16.9299 1.68181 17.9112 3.27548 18.4629 5.03452C19.5245 4.75483 20.5525 4.35953 21.5279 3.85535V3.85535Z" fill="white"/>
<path d="M0 12.0632H5.35718C5.37747 9.97147 5.68094 7.89216 6.25907 5.8818C5.0799 5.56699 3.94175 5.11409 2.86839 4.53247C1.10608 6.6565 0.0973002 9.30498 0 12.0632Z" fill="white"/>
<path d="M12.0534 24.985V19.2249C10.4914 19.2469 8.93565 19.4299 7.41113 19.7713C8.46551 22.7181 10.1416 24.7134 12.0534 24.985Z" fill="white"/>
<path d="M12.0532 12.957H6.25073C6.27342 14.9748 6.56925 16.9804 7.13036 18.9187C8.74607 18.55 10.396 18.3533 12.0532 18.3314V12.957Z" fill="white"/>
<path d="M12.0533 0.0354004C10.1415 0.307012 8.46539 2.30232 7.41101 5.24903C8.93553 5.59067 10.4912 5.77371 12.0533 5.79553V0.0354004Z" fill="white"/>
<path d="M12.0532 6.68912C10.3962 6.66731 8.74607 6.47053 7.13036 6.10205C6.56925 8.04042 6.27342 10.0458 6.25073 12.0635H12.0532V6.68912Z" fill="white"/>
<path d="M9.38907 0.396973C9.35285 0.406354 9.31664 0.413989 9.28042 0.42337C9.18574 0.448677 9.09237 0.47682 8.99812 0.50409C8.88599 0.536814 8.77472 0.569757 8.66215 0.605536C8.56725 0.636296 8.47388 0.669021 8.3805 0.701527C8.27121 0.740141 8.16169 0.778538 8.05348 0.819552C7.96011 0.855331 7.86804 0.892418 7.77554 0.930379C7.6693 0.975102 7.56283 1.01982 7.4579 1.06433C7.36583 1.10469 7.27486 1.14701 7.18367 1.18955C7.08048 1.2382 6.97772 1.28773 6.87584 1.33921C6.7864 1.38481 6.69695 1.4315 6.60772 1.47906C6.50758 1.53272 6.40832 1.5877 6.30971 1.64399C6.22027 1.69395 6.13235 1.74521 6.04617 1.79757C5.94909 1.85604 5.8531 1.91647 5.75754 1.97625C5.67159 2.03122 5.58629 2.08664 5.50186 2.1438C5.40761 2.20728 5.31468 2.27338 5.22217 2.33949C5.13905 2.39904 5.05637 2.45838 4.975 2.51838C4.88359 2.5871 4.79632 2.65866 4.70426 2.73C4.62485 2.79348 4.54478 2.85653 4.46712 2.9222C4.37767 2.99594 4.2928 3.07229 4.20663 3.14865C4.13027 3.21672 4.05326 3.28282 3.97865 3.35328C3.89379 3.43248 3.8111 3.51472 3.7282 3.59632C3.65621 3.66744 3.58291 3.73769 3.51222 3.81077C3.49935 3.8243 3.48691 3.83913 3.47339 3.85288C4.4477 4.35639 5.47437 4.75148 6.53485 5.03117C7.08637 3.27322 8.06722 1.68042 9.38907 0.396973V0.396973Z" fill="white"/>
<path d="M3.72625 21.4211C3.80937 21.5029 3.89206 21.5856 3.97736 21.6652C4.05153 21.7339 4.12789 21.7991 4.20403 21.8679C4.29064 21.9449 4.37725 22.0221 4.46626 22.0963C4.54349 22.1611 4.62225 22.2237 4.70122 22.2865C4.79067 22.3589 4.87989 22.4309 4.97458 22.5005C5.05508 22.561 5.13689 22.6194 5.2187 22.6794C5.31207 22.7464 5.40632 22.8134 5.50144 22.8777C5.58499 22.934 5.66986 22.989 5.75472 23.0431C5.85137 23.1051 5.9478 23.1659 6.04619 23.2248C6.13236 23.2767 6.21941 23.3276 6.30667 23.3773C6.40659 23.4345 6.50673 23.4899 6.60774 23.5438C6.69696 23.5885 6.78641 23.6372 6.87586 23.6819C6.97861 23.7338 7.08224 23.7838 7.18848 23.8331C7.27793 23.8752 7.36869 23.9166 7.46075 23.9572C7.56656 24.0041 7.67324 24.0464 7.78014 24.0911C7.8722 24.1287 7.96383 24.1658 8.05677 24.2011C8.16519 24.2428 8.27515 24.2816 8.3851 24.3196C8.47804 24.3521 8.57098 24.3848 8.66522 24.4151C8.77692 24.4513 8.88862 24.4845 9.00337 24.5174C9.09631 24.5447 9.18968 24.5724 9.28349 24.5975C9.31971 24.6073 9.35636 24.615 9.39257 24.6243C8.07008 23.34 7.08878 21.7463 6.53705 19.9873C5.47657 20.2672 4.4499 20.6623 3.47559 21.166C3.48868 21.1793 3.50111 21.1937 3.5142 21.2075C3.58118 21.2799 3.65339 21.3502 3.72625 21.4211V21.4211Z" fill="white"/>
<path d="M2.86839 20.4878C3.94175 19.9064 5.0799 19.4535 6.25907 19.1384C5.68094 17.1281 5.37747 15.0488 5.35718 12.957H0C0.0975184 15.7153 1.10608 18.3635 2.86839 20.4878V20.4878Z" fill="white"/>
</g>
<defs>
<clipPath id="clip0_216_644">
<rect width="25" height="25" fill="white"/>
</clipPath>
</defs>
</svg>
