<svg width="32" height="21" viewBox="0 0 32 21" fill="none" xmlns="http://www.w3.org/2000/svg">
<path d="M29.4467 2.62709L32 0.642425V0.208008H23.1547L16.8507 12.9567L9.67867 0.208008H0.404V0.642425L3.38667 3.55984C3.67733 3.77542 3.82933 4.09067 3.79067 4.40809V15.873C3.88267 16.2858 3.71733 16.7104 3.36 17.0105L0 20.319V20.748H9.52667V20.3136L6.16667 17.0105C5.80267 16.7093 5.63067 16.2923 5.704 15.873V5.95617L14.0667 20.7534H15.0387L22.2293 5.95617V17.7439C22.2293 18.0548 22.2293 18.1188 21.9787 18.3224L19.392 20.3558V20.7913H31.9413V20.3569L29.448 18.3733C29.2293 18.239 29.116 18.0137 29.1627 17.7948V3.20559C29.116 2.98567 29.228 2.76034 29.4467 2.62709Z" fill="white"/>
</svg>
