<svg width="7" height="10" viewBox="0 0 7 10" fill="none" xmlns="http://www.w3.org/2000/svg">
<path d="M3.5002 1.52419V5.76902C2.99107 5.50093 2.36277 5.39667 1.69656 5.61015C0.970774 5.84846 0.412892 6.43926 0.2829 7.13432C0.222805 7.44707 0.245266 7.76846 0.348404 8.07162C0.451542 8.37479 0.63236 8.65091 0.875741 8.87692C1.11912 9.10292 1.41799 9.27223 1.74737 9.3707C2.07674 9.46917 2.42705 9.49393 2.769 9.44291C3.8306 9.289 4.58347 8.39536 4.58347 7.40738V2.51714H5.66673C6.26253 2.51714 6.75 2.07031 6.75 1.52419C6.75 0.978074 6.26253 0.53125 5.66673 0.53125H4.58347C3.98767 0.53125 3.5002 0.978074 3.5002 1.52419Z" fill="white"/>
</svg>
