<svg width="12" height="13" viewBox="0 0 12 13" fill="none" xmlns="http://www.w3.org/2000/svg">
<path d="M1 7.50001C1.13261 7.50001 1.25979 7.44733 1.35355 7.35356C1.44732 7.25979 1.5 7.13262 1.5 7.00001V1.50001H7V4.50001C7 4.63262 7.05268 4.75979 7.14645 4.85356C7.24021 4.94733 7.36739 5.00001 7.5 5.00001H10.5V7.00001C10.5 7.13262 10.5527 7.25979 10.6464 7.35356C10.7402 7.44733 10.8674 7.50001 11 7.50001C11.1326 7.50001 11.2598 7.44733 11.3536 7.35356C11.4473 7.25979 11.5 7.13262 11.5 7.00001V4.50001C11.501 4.43348 11.4882 4.36748 11.4623 4.30616C11.4365 4.24484 11.3983 4.18955 11.35 4.14376L7.85625 0.643758C7.761 0.550897 7.63302 0.499258 7.5 0.500008H1.5C1.23478 0.500008 0.98043 0.605365 0.792893 0.792901C0.605357 0.980438 0.5 1.23479 0.5 1.50001V7.00001C0.5 7.13262 0.552679 7.25979 0.646447 7.35356C0.740215 7.44733 0.867392 7.50001 1 7.50001ZM8 2.20626L9.79375 4.00001H8V2.20626ZM2 9.00001H1C0.867392 9.00001 0.740215 9.05269 0.646447 9.14645C0.552679 9.24022 0.5 9.3674 0.5 9.50001V12.5C0.5 12.6326 0.552679 12.7598 0.646447 12.8536C0.740215 12.9473 0.867392 13 1 13C1.13261 13 1.25979 12.9473 1.35355 12.8536C1.44732 12.7598 1.5 12.6326 1.5 12.5V12H2C2.39782 12 2.77936 11.842 3.06066 11.5607C3.34196 11.2794 3.5 10.8978 3.5 10.5C3.5 10.1022 3.34196 9.72065 3.06066 9.43935C2.77936 9.15804 2.39782 9.00001 2 9.00001ZM2 11H1.5V10H2C2.13261 10 2.25979 10.0527 2.35355 10.1465C2.44732 10.2402 2.5 10.3674 2.5 10.5C2.5 10.6326 2.44732 10.7598 2.35355 10.8536C2.25979 10.9473 2.13261 11 2 11ZM10.25 10V10.75H11.25C11.3826 10.75 11.5098 10.8027 11.6036 10.8965C11.6973 10.9902 11.75 11.1174 11.75 11.25C11.75 11.3826 11.6973 11.5098 11.6036 11.6036C11.5098 11.6973 11.3826 11.75 11.25 11.75H10.25V12.5C10.25 12.6326 10.1973 12.7598 10.1036 12.8536C10.0098 12.9473 9.88261 13 9.75 13C9.61739 13 9.49021 12.9473 9.39645 12.8536C9.30268 12.7598 9.25 12.6326 9.25 12.5V9.50001C9.25 9.3674 9.30268 9.24022 9.39645 9.14645C9.49021 9.05269 9.61739 9.00001 9.75 9.00001H11.5C11.6326 9.00001 11.7598 9.05269 11.8536 9.14645C11.9473 9.24022 12 9.3674 12 9.50001C12 9.63262 11.9473 9.75979 11.8536 9.85356C11.7598 9.94733 11.6326 10 11.5 10H10.25ZM6 9.00001H5.125C4.99239 9.00001 4.86521 9.05269 4.77145 9.14645C4.67768 9.24022 4.625 9.3674 4.625 9.50001V12.5C4.625 12.6326 4.67768 12.7598 4.77145 12.8536C4.86521 12.9473 4.99239 13 5.125 13H6C6.53043 13 7.03914 12.7893 7.41421 12.4142C7.78929 12.0391 8 11.5304 8 11C8 10.4696 7.78929 9.96087 7.41421 9.58579C7.03914 9.21072 6.53043 9.00001 6 9.00001ZM6 12H5.625V10H6C6.26522 10 6.51957 10.1054 6.70711 10.2929C6.89464 10.4804 7 10.7348 7 11C7 11.2652 6.89464 11.5196 6.70711 11.7071C6.51957 11.8947 6.26522 12 6 12Z" fill="white"/>
</svg>
